<?xml version="1.0" encoding="utf-8" standalone="no"?>
<!DOCTYPE svg PUBLIC "-//W3C//DTD SVG 1.1//EN"
  "http://www.w3.org/Graphics/SVG/1.1/DTD/svg11.dtd">
<!-- Created with matplotlib (http://matplotlib.org/) -->
<svg height="288pt" version="1.1" viewBox="0 0 432 288" width="432pt" xmlns="http://www.w3.org/2000/svg" xmlns:xlink="http://www.w3.org/1999/xlink">
 <defs>
  <style type="text/css">
*{stroke-linecap:butt;stroke-linejoin:round;}
  </style>
 </defs>
 <g id="figure_1">
  <g id="patch_1">
   <path d="
M0 288
L432 288
L432 0
L0 0
z
" style="fill:#ffffff;"/>
  </g>
  <g id="axes_1">
   <g id="patch_2">
    <path d="
M54 252
L388.8 252
L388.8 28.8
L54 28.8
z
" style="fill:#ffffff;"/>
   </g>
   <g id="patch_3">
    <path clip-path="url(#p124b8dd147)" d="
M54.1196 252
L84.1463 252
L84.1463 94.9755
L54.1196 94.9755
z
" style="fill:#87cefa;stroke:#000000;"/>
   </g>
   <g id="patch_4">
    <path clip-path="url(#p124b8dd147)" d="
M84.1463 252
L114.173 252
L114.173 183.857
L84.1463 183.857
z
" style="fill:#87cefa;stroke:#000000;"/>
   </g>
   <g id="patch_5">
    <path clip-path="url(#p124b8dd147)" d="
M114.173 252
L144.2 252
L144.2 222.373
L114.173 222.373
z
" style="fill:#87cefa;stroke:#000000;"/>
   </g>
   <g id="patch_6">
    <path clip-path="url(#p124b8dd147)" d="
M144.2 252
L174.227 252
L174.227 234.224
L144.2 234.224
z
" style="fill:#87cefa;stroke:#000000;"/>
   </g>
   <g id="patch_7">
    <path clip-path="url(#p124b8dd147)" d="
M174.227 252
L204.253 252
L204.253 246.075
L174.227 246.075
z
" style="fill:#87cefa;stroke:#000000;"/>
   </g>
   <g id="patch_8">
    <path clip-path="url(#p124b8dd147)" d="
M204.253 252
L234.28 252
L234.28 240.149
L204.253 240.149
z
" style="fill:#87cefa;stroke:#000000;"/>
   </g>
   <g id="patch_9">
    <path clip-path="url(#p124b8dd147)" d="
M234.28 252
L264.307 252
L264.307 249.037
L234.28 249.037
z
" style="fill:#87cefa;stroke:#000000;"/>
   </g>
   <g id="patch_10">
    <path clip-path="url(#p124b8dd147)" d="
M264.307 252
L294.334 252
L294.334 252
L264.307 252
z
" style="fill:#87cefa;stroke:#000000;"/>
   </g>
   <g id="patch_11">
    <path clip-path="url(#p124b8dd147)" d="
M294.334 252
L324.361 252
L324.361 252
L294.334 252
z
" style="fill:#87cefa;stroke:#000000;"/>
   </g>
   <g id="patch_12">
    <path clip-path="url(#p124b8dd147)" d="
M324.361 252
L354.387 252
L354.387 249.037
L324.361 249.037
z
" style="fill:#87cefa;stroke:#000000;"/>
   </g>
   <g id="line2d_1">
    <path clip-path="url(#p124b8dd147)" d="
M54 55.3712
L56.285 65.0554
L58.57 74.2626
L60.855 83.0163
L63.14 91.3389
L65.425 99.2516
L67.7101 106.775
L69.9951 113.927
L72.2801 120.727
L74.5651 127.193
L76.8501 133.339
L79.1351 139.184
L81.4201 144.74
L83.7051 150.023
L85.9901 155.045
L88.2751 159.82
L90.5602 164.36
L92.8452 168.676
L95.1302 172.78
L97.4152 176.682
L99.7002 180.391
L101.985 183.918
L104.27 187.271
L106.555 190.459
L108.84 193.49
L111.125 196.372
L113.41 199.111
L115.695 201.716
L117.98 204.193
L120.265 206.547
L122.55 208.786
L124.835 210.914
L127.12 212.938
L129.405 214.862
L131.69 216.691
L133.975 218.43
L136.26 220.083
L138.545 221.655
L140.83 223.15
L143.115 224.57
L145.4 225.921
L147.685 227.206
L149.97 228.427
L152.255 229.588
L154.54 230.692
L156.825 231.741
L159.11 232.739
L161.395 233.688
L163.68 234.589
L165.965 235.447
L168.25 236.262
L170.536 237.037
L172.821 237.774
L175.106 238.475
L177.391 239.141
L179.676 239.774
L181.961 240.376
L184.246 240.949
L186.531 241.493
L188.816 242.011
L191.101 242.503
L193.386 242.97
L195.671 243.415
L197.956 243.838
L200.241 244.24
L202.526 244.622
L204.811 244.985
L207.096 245.331
L209.381 245.659
L211.666 245.972
L213.951 246.269
L216.236 246.551
L218.521 246.819
L220.806 247.074
L223.091 247.317
L225.376 247.548
L227.661 247.767
L229.946 247.975
L232.231 248.174
L234.516 248.362
L236.801 248.541
L239.086 248.712
L241.371 248.874
L243.656 249.028
L245.941 249.174
L248.226 249.313
L250.511 249.445
L252.796 249.571
L255.081 249.691
L257.366 249.805
L259.651 249.913
L261.936 250.016
L264.221 250.113
L266.506 250.206
L268.791 250.295
L271.076 250.379
L273.361 250.458
L275.646 250.534
L277.931 250.606
L280.216 250.675" style="fill:none;stroke:#ffa500;stroke-linecap:square;stroke-width:2;"/>
   </g>
   <g id="line2d_2">
    <path clip-path="url(#p124b8dd147)" d="
M99.2432 252
L99.2432 28.8" style="fill:none;stroke:#ff0000;stroke-dasharray:6.000000,6.000000;stroke-dashoffset:0.0;"/>
   </g>
   <g id="matplotlib.axis_1">
    <g id="xtick_1">
     <g id="line2d_3">
      <path clip-path="url(#p124b8dd147)" d="
M54 252
L54 28.8" style="fill:none;stroke:#000000;stroke-dasharray:1.000000,3.000000;stroke-dashoffset:0.0;stroke-width:0.5;"/>
     </g>
     <g id="line2d_4">
      <defs>
       <path d="
M0 0
L0 -4" id="mc7db9fdffb" style="stroke:#000000;stroke-width:0.5;"/>
      </defs>
      <g>
       <use style="stroke:#000000;stroke-width:0.5;" x="54.0" xlink:href="#mc7db9fdffb" y="252.0"/>
      </g>
     </g>
     <g id="line2d_5">
      <defs>
       <path d="
M0 0
L0 4" id="m5a7d422ac3" style="stroke:#000000;stroke-width:0.5;"/>
      </defs>
      <g>
       <use style="stroke:#000000;stroke-width:0.5;" x="54.0" xlink:href="#m5a7d422ac3" y="28.8"/>
      </g>
     </g>
     <g id="text_1">
      <!-- 0 -->
      <defs>
       <path d="
M4.15625 35.2969
Q4.15625 48 6.76562 55.7344
Q9.375 63.4844 14.5156 67.6719
Q19.6719 71.875 27.4844 71.875
Q33.25 71.875 37.5938 69.5469
Q41.9375 67.2344 44.7656 62.8594
Q47.6094 58.5 49.2188 52.2188
Q50.8281 45.9531 50.8281 35.2969
Q50.8281 22.7031 48.2344 14.9688
Q45.6562 7.23438 40.5 3
Q35.3594 -1.21875 27.4844 -1.21875
Q17.1406 -1.21875 11.2344 6.20312
Q4.15625 15.1406 4.15625 35.2969
M13.1875 35.2969
Q13.1875 17.6719 17.3125 11.8281
Q21.4375 6 27.4844 6
Q33.5469 6 37.6719 11.8594
Q41.7969 17.7188 41.7969 35.2969
Q41.7969 52.9844 37.6719 58.7812
Q33.5469 64.5938 27.3906 64.5938
Q21.3438 64.5938 17.7188 59.4688
Q13.1875 52.9375 13.1875 35.2969" id="ArialMT-30"/>
      </defs>
      <g transform="translate(51.66640625 263.1578125)scale(0.1 -0.1)">
       <use xlink:href="#ArialMT-30"/>
      </g>
     </g>
    </g>
    <g id="xtick_2">
     <g id="line2d_6">
      <path clip-path="url(#p124b8dd147)" d="
M101.829 252
L101.829 28.8" style="fill:none;stroke:#000000;stroke-dasharray:1.000000,3.000000;stroke-dashoffset:0.0;stroke-width:0.5;"/>
     </g>
     <g id="line2d_7">
      <g>
       <use style="stroke:#000000;stroke-width:0.5;" x="101.828571429" xlink:href="#mc7db9fdffb" y="252.0"/>
      </g>
     </g>
     <g id="line2d_8">
      <g>
       <use style="stroke:#000000;stroke-width:0.5;" x="101.828571429" xlink:href="#m5a7d422ac3" y="28.8"/>
      </g>
     </g>
     <g id="text_2">
      <!-- 2000 -->
      <defs>
       <path d="
M50.3438 8.45312
L50.3438 0
L3.03125 0
Q2.9375 3.17188 4.04688 6.10938
Q5.85938 10.9375 9.82812 15.625
Q13.8125 20.3125 21.3438 26.4688
Q33.0156 36.0312 37.1094 41.625
Q41.2188 47.2188 41.2188 52.2031
Q41.2188 57.4219 37.4688 61
Q33.7344 64.5938 27.7344 64.5938
Q21.3906 64.5938 17.5781 60.7812
Q13.7656 56.9844 13.7188 50.25
L4.6875 51.1719
Q5.60938 61.2812 11.6562 66.5781
Q17.7188 71.875 27.9375 71.875
Q38.2344 71.875 44.2344 66.1562
Q50.25 60.4531 50.25 52
Q50.25 47.7031 48.4844 43.5469
Q46.7344 39.4062 42.6562 34.8125
Q38.5781 30.2188 29.1094 22.2188
Q21.1875 15.5781 18.9375 13.2031
Q16.7031 10.8438 15.2344 8.45312
z
" id="ArialMT-32"/>
      </defs>
      <g transform="translate(91.0926339286 263.1578125)scale(0.1 -0.1)">
       <use xlink:href="#ArialMT-32"/>
       <use x="55.615234375" xlink:href="#ArialMT-30"/>
       <use x="111.23046875" xlink:href="#ArialMT-30"/>
       <use x="166.845703125" xlink:href="#ArialMT-30"/>
      </g>
     </g>
    </g>
    <g id="xtick_3">
     <g id="line2d_9">
      <path clip-path="url(#p124b8dd147)" d="
M149.657 252
L149.657 28.8" style="fill:none;stroke:#000000;stroke-dasharray:1.000000,3.000000;stroke-dashoffset:0.0;stroke-width:0.5;"/>
     </g>
     <g id="line2d_10">
      <g>
       <use style="stroke:#000000;stroke-width:0.5;" x="149.657142857" xlink:href="#mc7db9fdffb" y="252.0"/>
      </g>
     </g>
     <g id="line2d_11">
      <g>
       <use style="stroke:#000000;stroke-width:0.5;" x="149.657142857" xlink:href="#m5a7d422ac3" y="28.8"/>
      </g>
     </g>
     <g id="text_3">
      <!-- 4000 -->
      <defs>
       <path d="
M32.3281 0
L32.3281 17.1406
L1.26562 17.1406
L1.26562 25.2031
L33.9375 71.5781
L41.1094 71.5781
L41.1094 25.2031
L50.7812 25.2031
L50.7812 17.1406
L41.1094 17.1406
L41.1094 0
z

M32.3281 25.2031
L32.3281 57.4688
L9.90625 25.2031
z
" id="ArialMT-34"/>
      </defs>
      <g transform="translate(138.837611607 263.1578125)scale(0.1 -0.1)">
       <use xlink:href="#ArialMT-34"/>
       <use x="55.615234375" xlink:href="#ArialMT-30"/>
       <use x="111.23046875" xlink:href="#ArialMT-30"/>
       <use x="166.845703125" xlink:href="#ArialMT-30"/>
      </g>
     </g>
    </g>
    <g id="xtick_4">
     <g id="line2d_12">
      <path clip-path="url(#p124b8dd147)" d="
M197.486 252
L197.486 28.8" style="fill:none;stroke:#000000;stroke-dasharray:1.000000,3.000000;stroke-dashoffset:0.0;stroke-width:0.5;"/>
     </g>
     <g id="line2d_13">
      <g>
       <use style="stroke:#000000;stroke-width:0.5;" x="197.485714286" xlink:href="#mc7db9fdffb" y="252.0"/>
      </g>
     </g>
     <g id="line2d_14">
      <g>
       <use style="stroke:#000000;stroke-width:0.5;" x="197.485714286" xlink:href="#m5a7d422ac3" y="28.8"/>
      </g>
     </g>
     <g id="text_4">
      <!-- 6000 -->
      <defs>
       <path d="
M49.75 54.0469
L41.0156 53.375
Q39.8438 58.5469 37.7031 60.8906
Q34.125 64.6562 28.9062 64.6562
Q24.7031 64.6562 21.5312 62.3125
Q17.3906 59.2812 14.9844 53.4688
Q12.5938 47.6562 12.5 36.9219
Q15.6719 41.75 20.2656 44.0938
Q24.8594 46.4375 29.8906 46.4375
Q38.6719 46.4375 44.8438 39.9688
Q51.0312 33.5 51.0312 23.25
Q51.0312 16.5 48.125 10.7188
Q45.2188 4.9375 40.1406 1.85938
Q35.0625 -1.21875 28.6094 -1.21875
Q17.625 -1.21875 10.6875 6.85938
Q3.76562 14.9375 3.76562 33.5
Q3.76562 54.25 11.4219 63.6719
Q18.1094 71.875 29.4375 71.875
Q37.8906 71.875 43.2812 67.1406
Q48.6875 62.4062 49.75 54.0469
M13.875 23.1875
Q13.875 18.6562 15.7969 14.5
Q17.7188 10.3594 21.1875 8.17188
Q24.6562 6 28.4688 6
Q34.0312 6 38.0312 10.4844
Q42.0469 14.9844 42.0469 22.7031
Q42.0469 30.125 38.0781 34.3906
Q34.125 38.6719 28.125 38.6719
Q22.1719 38.6719 18.0156 34.3906
Q13.875 30.125 13.875 23.1875" id="ArialMT-36"/>
      </defs>
      <g transform="translate(186.791183036 263.1578125)scale(0.1 -0.1)">
       <use xlink:href="#ArialMT-36"/>
       <use x="55.615234375" xlink:href="#ArialMT-30"/>
       <use x="111.23046875" xlink:href="#ArialMT-30"/>
       <use x="166.845703125" xlink:href="#ArialMT-30"/>
      </g>
     </g>
    </g>
    <g id="xtick_5">
     <g id="line2d_15">
      <path clip-path="url(#p124b8dd147)" d="
M245.314 252
L245.314 28.8" style="fill:none;stroke:#000000;stroke-dasharray:1.000000,3.000000;stroke-dashoffset:0.0;stroke-width:0.5;"/>
     </g>
     <g id="line2d_16">
      <g>
       <use style="stroke:#000000;stroke-width:0.5;" x="245.314285714" xlink:href="#mc7db9fdffb" y="252.0"/>
      </g>
     </g>
     <g id="line2d_17">
      <g>
       <use style="stroke:#000000;stroke-width:0.5;" x="245.314285714" xlink:href="#m5a7d422ac3" y="28.8"/>
      </g>
     </g>
     <g id="text_5">
      <!-- 8000 -->
      <defs>
       <path d="
M17.6719 38.8125
Q12.2031 40.8281 9.5625 44.5312
Q6.9375 48.25 6.9375 53.4219
Q6.9375 61.2344 12.5469 66.5469
Q18.1719 71.875 27.4844 71.875
Q36.8594 71.875 42.5781 66.4219
Q48.2969 60.9844 48.2969 53.1719
Q48.2969 48.1875 45.6719 44.5
Q43.0625 40.8281 37.75 38.8125
Q44.3438 36.6719 47.7812 31.875
Q51.2188 27.0938 51.2188 20.4531
Q51.2188 11.2812 44.7188 5.03125
Q38.2344 -1.21875 27.6406 -1.21875
Q17.0469 -1.21875 10.5469 5.04688
Q4.04688 11.3281 4.04688 20.7031
Q4.04688 27.6875 7.59375 32.3906
Q11.1406 37.1094 17.6719 38.8125
M15.9219 53.7188
Q15.9219 48.6406 19.1875 45.4062
Q22.4688 42.1875 27.6875 42.1875
Q32.7656 42.1875 36.0156 45.375
Q39.2656 48.5781 39.2656 53.2188
Q39.2656 58.0625 35.9062 61.3594
Q32.5625 64.6562 27.5938 64.6562
Q22.5625 64.6562 19.2344 61.4219
Q15.9219 58.2031 15.9219 53.7188
M13.0938 20.6562
Q13.0938 16.8906 14.875 13.375
Q16.6562 9.85938 20.1719 7.92188
Q23.6875 6 27.7344 6
Q34.0312 6 38.125 10.0469
Q42.2344 14.1094 42.2344 20.3594
Q42.2344 26.7031 38.0156 30.8594
Q33.7969 35.0156 27.4375 35.0156
Q21.2344 35.0156 17.1562 30.9062
Q13.0938 26.8125 13.0938 20.6562" id="ArialMT-38"/>
      </defs>
      <g transform="translate(234.633816964 263.1578125)scale(0.1 -0.1)">
       <use xlink:href="#ArialMT-38"/>
       <use x="55.615234375" xlink:href="#ArialMT-30"/>
       <use x="111.23046875" xlink:href="#ArialMT-30"/>
       <use x="166.845703125" xlink:href="#ArialMT-30"/>
      </g>
     </g>
    </g>
    <g id="xtick_6">
     <g id="line2d_18">
      <path clip-path="url(#p124b8dd147)" d="
M293.143 252
L293.143 28.8" style="fill:none;stroke:#000000;stroke-dasharray:1.000000,3.000000;stroke-dashoffset:0.0;stroke-width:0.5;"/>
     </g>
     <g id="line2d_19">
      <g>
       <use style="stroke:#000000;stroke-width:0.5;" x="293.142857143" xlink:href="#mc7db9fdffb" y="252.0"/>
      </g>
     </g>
     <g id="line2d_20">
      <g>
       <use style="stroke:#000000;stroke-width:0.5;" x="293.142857143" xlink:href="#m5a7d422ac3" y="28.8"/>
      </g>
     </g>
     <g id="text_6">
      <!-- 10000 -->
      <defs>
       <path d="
M37.25 0
L28.4688 0
L28.4688 56
Q25.2969 52.9844 20.1406 49.9531
Q14.9844 46.9219 10.8906 45.4062
L10.8906 53.9062
Q18.2656 57.375 23.7812 62.2969
Q29.2969 67.2344 31.5938 71.875
L37.25 71.875
z
" id="ArialMT-31"/>
      </defs>
      <g transform="translate(280.024107143 263.1578125)scale(0.1 -0.1)">
       <use xlink:href="#ArialMT-31"/>
       <use x="55.615234375" xlink:href="#ArialMT-30"/>
       <use x="111.23046875" xlink:href="#ArialMT-30"/>
       <use x="166.845703125" xlink:href="#ArialMT-30"/>
       <use x="222.4609375" xlink:href="#ArialMT-30"/>
      </g>
     </g>
    </g>
    <g id="xtick_7">
     <g id="line2d_21">
      <path clip-path="url(#p124b8dd147)" d="
M340.971 252
L340.971 28.8" style="fill:none;stroke:#000000;stroke-dasharray:1.000000,3.000000;stroke-dashoffset:0.0;stroke-width:0.5;"/>
     </g>
     <g id="line2d_22">
      <g>
       <use style="stroke:#000000;stroke-width:0.5;" x="340.971428571" xlink:href="#mc7db9fdffb" y="252.0"/>
      </g>
     </g>
     <g id="line2d_23">
      <g>
       <use style="stroke:#000000;stroke-width:0.5;" x="340.971428571" xlink:href="#m5a7d422ac3" y="28.8"/>
      </g>
     </g>
     <g id="text_7">
      <!-- 12000 -->
      <g transform="translate(327.852678571 263.1578125)scale(0.1 -0.1)">
       <use xlink:href="#ArialMT-31"/>
       <use x="55.615234375" xlink:href="#ArialMT-32"/>
       <use x="111.23046875" xlink:href="#ArialMT-30"/>
       <use x="166.845703125" xlink:href="#ArialMT-30"/>
       <use x="222.4609375" xlink:href="#ArialMT-30"/>
      </g>
     </g>
    </g>
    <g id="xtick_8">
     <g id="line2d_24">
      <path clip-path="url(#p124b8dd147)" d="
M388.8 252
L388.8 28.8" style="fill:none;stroke:#000000;stroke-dasharray:1.000000,3.000000;stroke-dashoffset:0.0;stroke-width:0.5;"/>
     </g>
     <g id="line2d_25">
      <g>
       <use style="stroke:#000000;stroke-width:0.5;" x="388.8" xlink:href="#mc7db9fdffb" y="252.0"/>
      </g>
     </g>
     <g id="line2d_26">
      <g>
       <use style="stroke:#000000;stroke-width:0.5;" x="388.8" xlink:href="#m5a7d422ac3" y="28.8"/>
      </g>
     </g>
     <g id="text_8">
      <!-- 14000 -->
      <g transform="translate(375.68125 263.1578125)scale(0.1 -0.1)">
       <use xlink:href="#ArialMT-31"/>
       <use x="55.615234375" xlink:href="#ArialMT-34"/>
       <use x="111.23046875" xlink:href="#ArialMT-30"/>
       <use x="166.845703125" xlink:href="#ArialMT-30"/>
       <use x="222.4609375" xlink:href="#ArialMT-30"/>
      </g>
     </g>
    </g>
    <g id="text_9">
     <!-- $t$ -->
     <defs>
      <path d="
M29.5938 42.7969
L29.0938 39.5938
L20.7031 39.5938
L12 6.79688
Q11.7969 6 11.7969 5.40625
Q11.7969 3.79688 13.2969 3.79688
Q14.5 3.79688 16.0938 5.34375
Q17.7031 6.90625 21.4062 11.7031
L22.7031 11
Q18.0938 4 15.1406 1.45312
Q12.2031 -1.09375 8.40625 -1.09375
Q3.79688 -1.09375 3.79688 2.59375
Q3.79688 3.59375 5.40625 10
L13.2031 39.5938
L5.70312 39.5938
L5.59375 40.2031
Q5.59375 42 8.90625 42.7031
Q11.4062 43.2969 15.5 46.5469
Q19.5938 49.7969 22.2031 53.7031
Q22.7969 54.5938 23.5938 54.5938
Q24.5 54.5938 24.5 53.7969
Q24.5 53.2969 24.4062 53.0938
L21.5938 42.7969
z
" id="STIXGeneral-Italic-74"/>
     </defs>
     <g transform="translate(219.44 280.16625)scale(0.14 -0.14)">
      <use transform="translate(0.0 0.40625)" xlink:href="#STIXGeneral-Italic-74"/>
     </g>
    </g>
   </g>
   <g id="matplotlib.axis_2">
    <g id="ytick_1">
     <g id="line2d_27">
      <path clip-path="url(#p124b8dd147)" d="
M54 252
L388.8 252" style="fill:none;stroke:#000000;stroke-dasharray:1.000000,3.000000;stroke-dashoffset:0.0;stroke-width:0.5;"/>
     </g>
     <g id="line2d_28">
      <defs>
       <path d="
M0 0
L4 0" id="md7965d1ba0" style="stroke:#000000;stroke-width:0.5;"/>
      </defs>
      <g>
       <use style="stroke:#000000;stroke-width:0.5;" x="54.0" xlink:href="#md7965d1ba0" y="252.0"/>
      </g>
     </g>
     <g id="line2d_29">
      <defs>
       <path d="
M0 0
L-4 0" id="md9a1c1a7cd" style="stroke:#000000;stroke-width:0.5;"/>
      </defs>
      <g>
       <use style="stroke:#000000;stroke-width:0.5;" x="388.8" xlink:href="#md9a1c1a7cd" y="252.0"/>
      </g>
     </g>
     <g id="text_10">
      <!-- 0 -->
      <g transform="translate(45.3328125 254.58515625)scale(0.1 -0.1)">
       <use xlink:href="#ArialMT-30"/>
      </g>
     </g>
    </g>
    <g id="ytick_2">
     <g id="line2d_30">
      <path clip-path="url(#p124b8dd147)" d="
M54 214.8
L388.8 214.8" style="fill:none;stroke:#000000;stroke-dasharray:1.000000,3.000000;stroke-dashoffset:0.0;stroke-width:0.5;"/>
     </g>
     <g id="line2d_31">
      <g>
       <use style="stroke:#000000;stroke-width:0.5;" x="54.0" xlink:href="#md7965d1ba0" y="214.8"/>
      </g>
     </g>
     <g id="line2d_32">
      <g>
       <use style="stroke:#000000;stroke-width:0.5;" x="388.8" xlink:href="#md9a1c1a7cd" y="214.8"/>
      </g>
     </g>
     <g id="text_11">
      <!-- 1 -->
      <g transform="translate(47.3640625 217.38515625)scale(0.1 -0.1)">
       <use xlink:href="#ArialMT-31"/>
      </g>
     </g>
    </g>
    <g id="ytick_3">
     <g id="line2d_33">
      <path clip-path="url(#p124b8dd147)" d="
M54 177.6
L388.8 177.6" style="fill:none;stroke:#000000;stroke-dasharray:1.000000,3.000000;stroke-dashoffset:0.0;stroke-width:0.5;"/>
     </g>
     <g id="line2d_34">
      <g>
       <use style="stroke:#000000;stroke-width:0.5;" x="54.0" xlink:href="#md7965d1ba0" y="177.6"/>
      </g>
     </g>
     <g id="line2d_35">
      <g>
       <use style="stroke:#000000;stroke-width:0.5;" x="388.8" xlink:href="#md9a1c1a7cd" y="177.6"/>
      </g>
     </g>
     <g id="text_12">
      <!-- 2 -->
      <g transform="translate(45.259375 180.18515625)scale(0.1 -0.1)">
       <use xlink:href="#ArialMT-32"/>
      </g>
     </g>
    </g>
    <g id="ytick_4">
     <g id="line2d_36">
      <path clip-path="url(#p124b8dd147)" d="
M54 140.4
L388.8 140.4" style="fill:none;stroke:#000000;stroke-dasharray:1.000000,3.000000;stroke-dashoffset:0.0;stroke-width:0.5;"/>
     </g>
     <g id="line2d_37">
      <g>
       <use style="stroke:#000000;stroke-width:0.5;" x="54.0" xlink:href="#md7965d1ba0" y="140.4"/>
      </g>
     </g>
     <g id="line2d_38">
      <g>
       <use style="stroke:#000000;stroke-width:0.5;" x="388.8" xlink:href="#md9a1c1a7cd" y="140.4"/>
      </g>
     </g>
     <g id="text_13">
      <!-- 3 -->
      <defs>
       <path d="
M4.20312 18.8906
L12.9844 20.0625
Q14.5 12.5938 18.1406 9.29688
Q21.7812 6 27 6
Q33.2031 6 37.4688 10.2969
Q41.75 14.5938 41.75 20.9531
Q41.75 27 37.7969 30.9219
Q33.8438 34.8594 27.7344 34.8594
Q25.25 34.8594 21.5312 33.8906
L22.5156 41.6094
Q23.3906 41.5 23.9219 41.5
Q29.5469 41.5 34.0312 44.4219
Q38.5312 47.3594 38.5312 53.4688
Q38.5312 58.2969 35.25 61.4688
Q31.9844 64.6562 26.8125 64.6562
Q21.6875 64.6562 18.2656 61.4219
Q14.8438 58.2031 13.875 51.7656
L5.07812 53.3281
Q6.6875 62.1562 12.3906 67.0156
Q18.1094 71.875 26.6094 71.875
Q32.4688 71.875 37.3906 69.3594
Q42.3281 66.8438 44.9375 62.5
Q47.5625 58.1562 47.5625 53.2656
Q47.5625 48.6406 45.0625 44.8281
Q42.5781 41.0156 37.7031 38.7656
Q44.0469 37.3125 47.5625 32.6875
Q51.0781 28.0781 51.0781 21.1406
Q51.0781 11.7656 44.2344 5.25
Q37.4062 -1.26562 26.9531 -1.26562
Q17.5312 -1.26562 11.2969 4.34375
Q5.07812 9.96875 4.20312 18.8906" id="ArialMT-33"/>
      </defs>
      <g transform="translate(45.3125 142.98515625)scale(0.1 -0.1)">
       <use xlink:href="#ArialMT-33"/>
      </g>
     </g>
    </g>
    <g id="ytick_5">
     <g id="line2d_39">
      <path clip-path="url(#p124b8dd147)" d="
M54 103.2
L388.8 103.2" style="fill:none;stroke:#000000;stroke-dasharray:1.000000,3.000000;stroke-dashoffset:0.0;stroke-width:0.5;"/>
     </g>
     <g id="line2d_40">
      <g>
       <use style="stroke:#000000;stroke-width:0.5;" x="54.0" xlink:href="#md7965d1ba0" y="103.2"/>
      </g>
     </g>
     <g id="line2d_41">
      <g>
       <use style="stroke:#000000;stroke-width:0.5;" x="388.8" xlink:href="#md9a1c1a7cd" y="103.2"/>
      </g>
     </g>
     <g id="text_14">
      <!-- 4 -->
      <g transform="translate(45.0484375 105.78515625)scale(0.1 -0.1)">
       <use xlink:href="#ArialMT-34"/>
      </g>
     </g>
    </g>
    <g id="ytick_6">
     <g id="line2d_42">
      <path clip-path="url(#p124b8dd147)" d="
M54 66
L388.8 66" style="fill:none;stroke:#000000;stroke-dasharray:1.000000,3.000000;stroke-dashoffset:0.0;stroke-width:0.5;"/>
     </g>
     <g id="line2d_43">
      <g>
       <use style="stroke:#000000;stroke-width:0.5;" x="54.0" xlink:href="#md7965d1ba0" y="66.0"/>
      </g>
     </g>
     <g id="line2d_44">
      <g>
       <use style="stroke:#000000;stroke-width:0.5;" x="388.8" xlink:href="#md9a1c1a7cd" y="66.0"/>
      </g>
     </g>
     <g id="text_15">
      <!-- 5 -->
      <defs>
       <path d="
M4.15625 18.75
L13.375 19.5312
Q14.4062 12.7969 18.1406 9.39062
Q21.875 6 27.1562 6
Q33.5 6 37.8906 10.7812
Q42.2812 15.5781 42.2812 23.4844
Q42.2812 31 38.0625 35.3438
Q33.8438 39.7031 27 39.7031
Q22.75 39.7031 19.3281 37.7656
Q15.9219 35.8438 13.9688 32.7656
L5.71875 33.8438
L12.6406 70.6094
L48.25 70.6094
L48.25 62.2031
L19.6719 62.2031
L15.8281 42.9688
Q22.2656 47.4688 29.3438 47.4688
Q38.7188 47.4688 45.1562 40.9688
Q51.6094 34.4688 51.6094 24.2656
Q51.6094 14.5469 45.9531 7.46875
Q39.0625 -1.21875 27.1562 -1.21875
Q17.3906 -1.21875 11.2031 4.25
Q5.03125 9.71875 4.15625 18.75" id="ArialMT-35"/>
      </defs>
      <g transform="translate(45.2546875 68.58515625)scale(0.1 -0.1)">
       <use xlink:href="#ArialMT-35"/>
      </g>
     </g>
    </g>
    <g id="ytick_7">
     <g id="line2d_45">
      <path clip-path="url(#p124b8dd147)" d="
M54 28.8
L388.8 28.8" style="fill:none;stroke:#000000;stroke-dasharray:1.000000,3.000000;stroke-dashoffset:0.0;stroke-width:0.5;"/>
     </g>
     <g id="line2d_46">
      <g>
       <use style="stroke:#000000;stroke-width:0.5;" x="54.0" xlink:href="#md7965d1ba0" y="28.8"/>
      </g>
     </g>
     <g id="line2d_47">
      <g>
       <use style="stroke:#000000;stroke-width:0.5;" x="388.8" xlink:href="#md9a1c1a7cd" y="28.8"/>
      </g>
     </g>
     <g id="text_16">
      <!-- 6 -->
      <g transform="translate(45.2734375 31.38515625)scale(0.1 -0.1)">
       <use xlink:href="#ArialMT-36"/>
      </g>
     </g>
    </g>
    <g id="text_17">
     <!-- $f(t)$ -->
     <defs>
      <path d="
M2.90625 66
L4.09375 67.5938
Q15.5 60.7969 22 49.1875
Q28.5 37.5938 28.5 24.7031
Q28.5 -2.59375 3.79688 -17.7031
L2.90625 -16.0938
Q13.2031 -7.59375 16.5469 0.84375
Q19.9062 9.29688 19.9062 24.4062
Q19.9062 39.5938 16.5469 48.75
Q13.2031 57.9062 2.90625 66" id="STIXGeneral-Regular-29"/>
      <path d="
M4.09375 42.7969
L13.4062 42.7969
Q17.2969 55.4062 20.5938 60.0938
Q26 67.7969 33.7969 67.7969
Q37.5 67.7969 39.9531 66.0469
Q42.4062 64.2969 42.4062 61.5938
Q42.4062 59.9062 41.1562 58.5938
Q39.9062 57.2969 38.2031 57.2969
Q36.7969 57.2969 35.6406 58.3906
Q34.5 59.5 34.5 61.2031
Q34.5 62.2031 35 63.0938
Q35.5 64 35.5 64.2969
Q35.5 65.5938 33.2969 65.5938
Q29.0938 65.5938 26.1875 60.1406
Q23.2969 54.7031 21.0938 42.7969
L31.7969 42.7969
L31.2031 39.5938
L20.4062 39.5938
L13.2031 7.59375
Q6.79688 -20.7031 -6.79688 -20.7031
Q-10.2031 -20.7031 -12.4531 -18.9531
Q-14.7031 -17.2031 -14.7031 -14.5938
Q-14.7031 -12.9062 -13.5938 -11.6562
Q-12.5 -10.4062 -10.9062 -10.4062
Q-9.20312 -10.4062 -8.14062 -11.4531
Q-7.09375 -12.5 -7.09375 -14.0938
Q-7.09375 -14.7969 -7.54688 -15.6406
Q-8 -16.5 -8 -17
Q-8 -18.5938 -6 -18.5938
Q0.203125 -18.5938 3.70312 -2.40625
L12.5 39.5938
L3.40625 39.5938
z
" id="STIXGeneral-Italic-66"/>
      <path d="
M30.4062 -16.0938
L29.2031 -17.7031
Q17.5938 -11.0938 11.1875 0.5
Q4.79688 12.0938 4.79688 25.2031
Q4.79688 52.9062 29.5 67.5938
L30.4062 66
Q20.2031 57.2969 16.7969 48.8438
Q13.4062 40.4062 13.4062 25.5
Q13.4062 10.7031 16.9062 1.5
Q20.4062 -7.70312 30.4062 -16.0938" id="STIXGeneral-Regular-28"/>
     </defs>
     <g transform="translate(37.1084375 149.01)rotate(-90.0)scale(0.14 -0.14)">
      <use transform="translate(0.0 0.203125)" xlink:href="#STIXGeneral-Italic-66"/>
      <use transform="translate(27.79998779296875 0.203125)" xlink:href="#STIXGeneral-Regular-28"/>
      <use transform="translate(61.0999755859375 0.203125)" xlink:href="#STIXGeneral-Italic-74"/>
      <use transform="translate(88.89996337890625 0.203125)" xlink:href="#STIXGeneral-Regular-29"/>
     </g>
    </g>
    <g id="text_18">
     <!-- 1e−4 -->
     <defs>
      <path d="
M42.0938 16.7031
L51.1719 15.5781
Q49.0312 7.625 43.2188 3.21875
Q37.4062 -1.17188 28.375 -1.17188
Q17 -1.17188 10.3281 5.82812
Q3.65625 12.8438 3.65625 25.4844
Q3.65625 38.5781 10.3906 45.7969
Q17.1406 53.0312 27.875 53.0312
Q38.2812 53.0312 44.875 45.9531
Q51.4688 38.875 51.4688 26.0312
Q51.4688 25.25 51.4219 23.6875
L12.75 23.6875
Q13.2344 15.1406 17.5781 10.5938
Q21.9219 6.0625 28.4219 6.0625
Q33.25 6.0625 36.6719 8.59375
Q40.0938 11.1406 42.0938 16.7031
M13.2344 30.9062
L42.1875 30.9062
Q41.6094 37.4531 38.875 40.7188
Q34.6719 45.7969 27.9844 45.7969
Q21.9219 45.7969 17.7969 41.75
Q13.6719 37.7031 13.2344 30.9062" id="ArialMT-65"/>
      <path d="
M52.8281 31.2031
L5.5625 31.2031
L5.5625 39.4062
L52.8281 39.4062
z
" id="ArialMT-2212"/>
     </defs>
     <g transform="translate(54.0 25.8)scale(0.1 -0.1)">
      <use xlink:href="#ArialMT-31"/>
      <use x="55.615234375" xlink:href="#ArialMT-65"/>
      <use x="111.23046875" xlink:href="#ArialMT-2212"/>
      <use x="169.62890625" xlink:href="#ArialMT-34"/>
     </g>
    </g>
   </g>
   <g id="patch_13">
    <path d="
M54 252
L388.8 252" style="fill:none;stroke:#000000;"/>
   </g>
   <g id="patch_14">
    <path d="
M54 252
L54 28.8" style="fill:none;stroke:#000000;"/>
   </g>
   <g id="patch_15">
    <path d="
M388.8 252
L388.8 28.8" style="fill:none;stroke:#000000;"/>
   </g>
   <g id="patch_16">
    <path d="
M54 28.8
L388.8 28.8" style="fill:none;stroke:#000000;"/>
   </g>
   <g id="text_19">
    <!-- $\bar{t}= 1892$ -->
    <defs>
     <path d="
M47.4062 13.7031
L42 0
L2.90625 0
L2.90625 1.20312
L20.7031 20.0938
Q27.7031 27.4062 30.7031 33.5
Q33.7031 39.5938 33.7031 46.0938
Q33.7031 52.7969 30 56.5
Q26.2969 60.2031 19.7969 60.2031
Q14.4062 60.2031 11.25 57.3906
Q8.09375 54.5938 5.09375 47.2031
L3 47.7031
Q4.70312 57 9.84375 62.2969
Q15 67.5938 23.7969 67.5938
Q32.0938 67.5938 37.1875 62.5938
Q42.2969 57.5938 42.2969 50
Q42.2969 38.7031 29.5 25.2031
L13 7.59375
L36.4062 7.59375
Q39.7031 7.59375 41.6406 8.89062
Q43.5938 10.2031 46 14.2969
z
" id="STIXGeneral-Regular-32"/>
     <path d="
M5.90625 -2.20312
L5.59375 -0.203125
Q17.0938 1.79688 25.0469 9.5
Q33 17.2031 36 29.4062
Q30.2031 23.7031 21 23.7031
Q12.9062 23.7031 7.95312 29.2969
Q3 34.9062 3 44
Q3 54.0938 8.95312 60.8438
Q14.9062 67.5938 23.7969 67.5938
Q33.2969 67.5938 39.5 60
Q45.9062 52 45.9062 39.4062
Q45.9062 30.5938 42.8438 22.8438
Q39.7969 15.0938 33.9062 9.70312
Q27.7031 4.09375 21.7969 1.64062
Q15.9062 -0.796875 5.90625 -2.20312
M36.2031 35.5
L36.2031 39.4062
Q36.2031 64.7969 23 64.7969
Q18.2969 64.7969 15.7031 61.4062
Q14.2031 59.4062 13.2031 55.4062
Q12.2031 51.4062 12.2031 47.4062
Q12.2031 38.5 15.5469 33.25
Q18.9062 28 24.5 28
Q28.5 28 32.3438 29.9531
Q36.2031 31.9062 36.2031 35.5" id="STIXGeneral-Regular-39"/>
     <path d="
M39.4062 0
L11.7969 0
L11.7969 1.5
Q17.2969 1.79688 19.2969 3.54688
Q21.2969 5.29688 21.2969 9.5
L21.2969 54.4062
Q21.2969 59.2969 18.2969 59.2969
Q16.9062 59.2969 13.7969 58.0938
L11.0938 57.0938
L11.0938 58.5
L29 67.5938
L29.9062 67.2969
L29.9062 7.59375
Q29.9062 4.29688 31.9062 2.89062
Q33.9062 1.5 39.4062 1.5
z
" id="STIXGeneral-Regular-31"/>
     <path d="
M44.5 15.5
Q44.5 7.79688 39.1406 3.1875
Q33.7969 -1.40625 24.7969 -1.40625
Q16.4062 -1.40625 11 3.1875
Q5.59375 7.79688 5.59375 14.9062
Q5.59375 20.2031 8.1875 23.9531
Q10.7969 27.7031 18.5938 33.2031
Q11.0938 39.4062 8.64062 43.2031
Q6.20312 47 6.20312 52
Q6.20312 59.0938 11.6406 63.3438
Q17.0938 67.5938 25.5938 67.5938
Q32.9062 67.5938 37.6562 63.4375
Q42.4062 59.2969 42.4062 53.2969
Q42.4062 47.7969 39.5469 44.5
Q36.7031 41.2031 29 37.0938
Q38 31.0938 41.25 26.3906
Q44.5 21.7031 44.5 15.5
M35.5 53.2969
Q35.5 58.5 32.5938 61.6406
Q29.7031 64.7969 24.5938 64.7969
Q19.5 64.7969 16.5469 62.1406
Q13.5938 59.5 13.5938 54.8906
Q13.5938 50.2969 16.5469 46.5469
Q19.5 42.7969 26.0938 38.9062
Q31.2031 41.9062 33.3438 45.25
Q35.5 48.5938 35.5 53.2969
M27.0938 27.2031
L21.2031 31.2031
Q16.7969 27.5938 15 24.1406
Q13.2031 20.7031 13.2031 15.7969
Q13.2031 9 16.6406 5.20312
Q20.0938 1.40625 25.9062 1.40625
Q30.7969 1.40625 33.8438 4.45312
Q36.9062 7.5 36.9062 12.4062
Q36.9062 16.9062 34.5938 20.2969
Q32.2969 23.7031 27.0938 27.2031" id="STIXGeneral-Regular-38"/>
     <path d="
M63.7031 32
L4.79688 32
L4.79688 38.5938
L63.7031 38.5938
z

M63.7031 12
L4.79688 12
L4.79688 18.5938
L63.7031 18.5938
z
" id="STIXGeneral-Regular-3d"/>
     <path d="
M-7.40625 54.7031
L-38.5 54.7031
L-38.5 60.0938
L-7.40625 60.0938
z
" id="STIXGeneral-Regular-304"/>
    </defs>
    <g transform="translate(103.7675178 143.496478033)scale(0.15 -0.15)">
     <use transform="translate(36.5 12.90625)" xlink:href="#STIXGeneral-Regular-304"/>
     <use transform="translate(0.0 0.515625)" xlink:href="#STIXGeneral-Italic-74"/>
     <use transform="translate(42.239984130859376 0.515625)" xlink:href="#STIXGeneral-Regular-3d"/>
     <use transform="translate(115.57060546874999 0.515625)" xlink:href="#STIXGeneral-Regular-31"/>
     <use transform="translate(165.57059020996093 0.515625)" xlink:href="#STIXGeneral-Regular-38"/>
     <use transform="translate(215.57057495117186 0.515625)" xlink:href="#STIXGeneral-Regular-39"/>
     <use transform="translate(265.5705596923828 0.515625)" xlink:href="#STIXGeneral-Regular-32"/>
    </g>
   </g>
   <g id="text_20">
    <!-- Плотность распределения отказов -->
    <defs>
     <path id="ArialMT-20"/>
     <path d="
M6.54688 51.8594
L15.3281 51.8594
L15.3281 29.4375
Q19.5312 29.4375 21.2188 31.0469
Q22.9062 32.6719 26.1719 40.4375
Q28.7656 46.5781 30.375 48.5312
Q31.9844 50.4844 34.0781 51.1719
Q36.1875 51.8594 40.8281 51.8594
L42.5781 51.8594
L42.5781 44.5781
L40.1406 44.625
Q36.6719 44.625 35.6875 43.6094
Q34.6719 42.5312 32.5625 37.2031
Q30.5625 32.125 28.9062 30.1719
Q27.25 28.2188 23.7812 26.6094
Q29.4375 25.0938 34.9062 16.0625
L44.5312 0
L34.8594 0
L25.4844 16.0625
Q22.6094 20.9062 20.4531 22.4375
Q18.3125 23.9688 15.3281 23.9688
L15.3281 0
L6.54688 0
z
" id="ArialMT-43a"/>
     <path d="
M42.0938 16.7031
L51.1719 15.5781
Q49.0312 7.625 43.2188 3.21875
Q37.4062 -1.17188 28.375 -1.17188
Q17 -1.17188 10.3281 5.82812
Q3.65625 12.8438 3.65625 25.4844
Q3.65625 38.5781 10.3906 45.7969
Q17.1406 53.0312 27.875 53.0312
Q38.2812 53.0312 44.875 45.9531
Q51.4688 38.875 51.4688 26.0312
Q51.4688 25.25 51.4219 23.6875
L12.75 23.6875
Q13.2344 15.1406 17.5781 10.5938
Q21.9219 6.0625 28.4219 6.0625
Q33.25 6.0625 36.6719 8.59375
Q40.0938 11.1406 42.0938 16.7031
M13.2344 30.9062
L42.1875 30.9062
Q41.6094 37.4531 38.875 40.7188
Q34.6719 45.7969 27.9844 45.7969
Q21.9219 45.7969 17.7969 41.75
Q13.6719 37.7031 13.2344 30.9062" id="ArialMT-435"/>
     <path d="
M6.45312 51.8594
L15.2344 51.8594
L15.2344 31.5938
L26.375 31.5938
Q37.25 31.5938 43.1406 27.3594
Q49.0312 23.1406 49.0312 15.7188
Q49.0312 9.23438 44.1094 4.60938
Q39.2031 0 28.4219 0
L6.45312 0
z

M15.2344 7.23438
L24.4688 7.23438
Q32.8125 7.23438 36.375 9.28125
Q39.9375 11.3281 39.9375 15.6719
Q39.9375 19.0469 37.2969 21.6719
Q34.6719 24.3125 25.6406 24.3125
L15.2344 24.3125
z
" id="ArialMT-44c"/>
     <path d="
M40.4375 19
L49.0781 17.875
Q47.6562 8.9375 41.8125 3.875
Q35.9844 -1.17188 27.4844 -1.17188
Q16.8438 -1.17188 10.375 5.78125
Q3.90625 12.75 3.90625 25.7344
Q3.90625 34.125 6.6875 40.4219
Q9.46875 46.7344 15.1562 49.875
Q20.8438 53.0312 27.5469 53.0312
Q35.9844 53.0312 41.3594 48.75
Q46.7344 44.4844 48.25 36.625
L39.7031 35.2969
Q38.4844 40.5312 35.375 43.1562
Q32.2812 45.7969 27.875 45.7969
Q21.2344 45.7969 17.0781 41.0312
Q12.9375 36.2812 12.9375 25.9844
Q12.9375 15.5312 16.9375 10.7969
Q20.9531 6.0625 27.3906 6.0625
Q32.5625 6.0625 36.0312 9.23438
Q39.5 12.4062 40.4375 19" id="ArialMT-441"/>
     <path d="
M3.32812 25.9219
Q3.32812 40.3281 11.3281 47.2656
Q18.0156 53.0312 27.6406 53.0312
Q38.3281 53.0312 45.1094 46.0156
Q51.9062 39.0156 51.9062 26.6562
Q51.9062 16.6562 48.9062 10.9062
Q45.9062 5.17188 40.1562 2
Q34.4219 -1.17188 27.6406 -1.17188
Q16.75 -1.17188 10.0312 5.8125
Q3.32812 12.7969 3.32812 25.9219
M12.3594 25.9219
Q12.3594 15.9688 16.7031 11.0156
Q21.0469 6.0625 27.6406 6.0625
Q34.1875 6.0625 38.5312 11.0312
Q42.875 16.0156 42.875 26.2188
Q42.875 35.8438 38.5 40.7969
Q34.125 45.75 27.6406 45.75
Q21.0469 45.75 16.7031 40.8125
Q12.3594 35.8906 12.3594 25.9219" id="ArialMT-43e"/>
     <path d="
M47.4062 51.8594
L47.4062 0
L38.6719 0
L38.6719 20.2188
L33.5938 20.2188
Q28.9531 20.2188 26.6875 19.0156
Q24.4219 17.8281 20.0625 11.3281
L12.4062 0
L1.51562 0
L10.9844 13.9688
Q15.3281 20.3594 19.625 21.1875
Q12.1094 22.2188 8.46875 26.6094
Q4.82812 31 4.82812 36.7188
Q4.82812 43.4531 9.59375 47.6562
Q14.3594 51.8594 23.3906 51.8594
z

M38.6719 44.5781
L26.1719 44.5781
Q18.3125 44.5781 16.0312 42.1406
Q13.7656 39.7031 13.7656 36.4219
Q13.7656 31.7812 17.1094 29.6094
Q20.4531 27.4375 28.9531 27.4375
L38.6719 27.4375
z
" id="ArialMT-44f"/>
     <path d="
M1.85938 51.8594
L44 51.8594
L44 44.5781
L27.2969 44.5781
L27.2969 0
L18.5625 0
L18.5625 44.5781
L1.85938 44.5781
z
" id="ArialMT-442"/>
     <path d="
M7.8125 71.5781
L64.1094 71.5781
L64.1094 0
L54.5938 0
L54.5938 63.1406
L17.2812 63.1406
L17.2812 0
L7.8125 0
z
" id="ArialMT-41f"/>
     <path d="
M13.5312 51.8594
L49.6562 51.8594
L49.6562 7.23438
L55.2812 7.23438
L55.2812 -14.7031
L48.0469 -14.7031
L48.0469 0
L7.23438 0
L7.23438 -14.7031
L0 -14.7031
L0 7.23438
L4.64062 7.23438
Q13.9219 19.8281 13.5312 51.8594
M20.8438 44.5781
Q19.875 19.3438 13.0312 7.23438
L40.9219 7.23438
L40.9219 44.5781
z
" id="ArialMT-434"/>
     <path d="
M6.64062 51.8594
L47.5625 51.8594
L47.5625 0
L38.7656 0
L38.7656 44.5781
L15.4375 44.5781
L15.4375 0
L6.64062 0
z
" id="ArialMT-43f"/>
     <path d="
M18.0625 23.4375
L18.0625 30.3281
Q23.6406 30.375 25.6562 30.7656
Q27.6875 31.1562 29.4844 33.1094
Q31.2969 35.0625 31.2969 37.9844
Q31.2969 41.5469 28.9219 43.6719
Q26.5625 45.7969 22.7969 45.7969
Q15.375 45.7969 12.4062 37.0625
L4.04688 38.4219
Q7.95312 53.0312 22.9062 53.0312
Q31.2031 53.0312 35.9062 48.4844
Q40.625 43.9531 40.625 37.6406
Q40.625 31.2969 34.4688 27.5469
Q38.375 25.4375 40.3281 22.1875
Q42.2812 18.9531 42.2812 14.5
Q42.2812 7.51562 37.2031 3.17188
Q32.125 -1.17188 23 -1.17188
Q5.28125 -1.17188 2.4375 14.5938
L10.6875 16.3594
Q11.8125 11.375 15.25 8.64062
Q18.7031 5.90625 23.1406 5.90625
Q27.5938 5.90625 30.5469 8.42188
Q33.5 10.9375 33.5 14.8438
Q33.5 17.875 31.6406 20.1094
Q29.7812 22.3594 27.6875 22.9219
Q25.5938 23.4844 20.0625 23.4844
Q19.625 23.4844 18.0625 23.4375" id="ArialMT-437"/>
     <path d="
M6.59375 51.8594
L15.375 51.8594
L15.375 12.3125
L39.75 51.8594
L49.2188 51.8594
L49.2188 0
L40.4375 0
L40.4375 39.3125
L16.0625 0
L6.59375 0
z
" id="ArialMT-438"/>
     <path d="
M10.8906 51.8594
L51.7031 51.8594
L51.7031 0
L42.9688 0
L42.9688 44.5781
L19.6719 44.5781
L19.6719 18.75
Q19.6719 9.71875 19.0781 6.82812
Q18.5 3.95312 15.8594 1.79688
Q13.2344 -0.34375 8.25 -0.34375
Q5.17188 -0.34375 1.17188 0.046875
L1.17188 7.375
L5.03125 7.375
Q7.76562 7.375 8.9375 7.9375
Q10.1094 8.5 10.5 9.71875
Q10.8906 10.9375 10.8906 17.6719
z
" id="ArialMT-43b"/>
     <path d="
M40.4375 6.39062
Q35.5469 2.25 31.0312 0.53125
Q26.5156 -1.17188 21.3438 -1.17188
Q12.7969 -1.17188 8.20312 3
Q3.60938 7.17188 3.60938 13.6719
Q3.60938 17.4844 5.34375 20.625
Q7.07812 23.7812 9.89062 25.6875
Q12.7031 27.5938 16.2188 28.5625
Q18.7969 29.25 24.0312 29.8906
Q34.6719 31.1562 39.7031 32.9062
Q39.75 34.7188 39.75 35.2031
Q39.75 40.5781 37.25 42.7812
Q33.8906 45.75 27.25 45.75
Q21.0469 45.75 18.0938 43.5781
Q15.1406 41.4062 13.7188 35.8906
L5.125 37.0625
Q6.29688 42.5781 8.98438 45.9688
Q11.6719 49.3594 16.75 51.1875
Q21.8281 53.0312 28.5156 53.0312
Q35.1562 53.0312 39.2969 51.4688
Q43.4531 49.9062 45.4062 47.5312
Q47.3594 45.1719 48.1406 41.5469
Q48.5781 39.3125 48.5781 33.4531
L48.5781 21.7344
Q48.5781 9.46875 49.1406 6.21875
Q49.7031 2.98438 51.375 0
L42.1875 0
Q40.8281 2.73438 40.4375 6.39062
M39.7031 26.0312
Q34.9062 24.0781 25.3438 22.7031
Q19.9219 21.9219 17.6719 20.9375
Q15.4375 19.9688 14.2031 18.0938
Q12.9844 16.2188 12.9844 13.9219
Q12.9844 10.4062 15.6406 8.0625
Q18.3125 5.71875 23.4375 5.71875
Q28.5156 5.71875 32.4688 7.9375
Q36.4219 10.1562 38.2812 14.0156
Q39.7031 17 39.7031 22.7969
z
" id="ArialMT-430"/>
     <path d="
M6.59375 -19.875
L6.59375 51.8594
L14.5938 51.8594
L14.5938 45.125
Q17.4375 49.0781 21 51.0469
Q24.5625 53.0312 29.6406 53.0312
Q36.2812 53.0312 41.3594 49.6094
Q46.4375 46.1875 49.0156 39.9531
Q51.6094 33.7344 51.6094 26.3125
Q51.6094 18.3594 48.75 11.9844
Q45.9062 5.60938 40.4531 2.21875
Q35.0156 -1.17188 29 -1.17188
Q24.6094 -1.17188 21.1094 0.6875
Q17.625 2.54688 15.375 5.375
L15.375 -19.875
z

M14.5469 25.6406
Q14.5469 15.625 18.5938 10.8438
Q22.6562 6.0625 28.4219 6.0625
Q34.2812 6.0625 38.4531 11.0156
Q42.625 15.9688 42.625 26.375
Q42.625 36.2812 38.5469 41.2031
Q34.4688 46.1406 28.8125 46.1406
Q23.1875 46.1406 18.8594 40.8906
Q14.5469 35.6406 14.5469 25.6406" id="ArialMT-440"/>
     <path d="
M6.64062 51.8594
L15.4375 51.8594
L15.4375 30.2812
L39.7969 30.2812
L39.7969 51.8594
L48.5781 51.8594
L48.5781 0
L39.7969 0
L39.7969 23
L15.4375 23
L15.4375 0
L6.64062 0
z
" id="ArialMT-43d"/>
     <path d="
M6.64062 51.8594
L26.9062 51.8594
Q34.375 51.8594 38.0156 50.6094
Q41.6562 49.3594 44.2656 46.0312
Q46.875 42.7188 46.875 38.0938
Q46.875 34.375 45.3281 31.6094
Q43.7969 28.8594 40.7188 27
Q44.3906 25.7812 46.7969 22.4375
Q49.2188 19.0938 49.2188 14.5
Q48.7344 7.125 43.9375 3.5625
Q39.1562 0 30.0312 0
L6.64062 0
z

M15.4375 30.0312
L24.8125 30.0312
Q30.4219 30.0312 32.5156 30.6094
Q34.625 31.2031 36.2812 32.9844
Q37.9375 34.7656 37.9375 37.25
Q37.9375 41.3594 35.0312 42.9688
Q32.125 44.5781 25.0938 44.5781
L15.4375 44.5781
z

M15.4375 7.23438
L27 7.23438
Q34.4688 7.23438 37.25 8.95312
Q40.0469 10.6875 40.1875 14.9375
Q40.1875 17.4375 38.5781 19.5625
Q36.9688 21.6875 34.375 22.2344
Q31.7812 22.7969 26.0781 22.7969
L15.4375 22.7969
z
" id="ArialMT-432"/>
    </defs>
    <g transform="translate(92.75375 12.64)scale(0.16 -0.16)">
     <use xlink:href="#ArialMT-41f"/>
     <use x="71.875" xlink:href="#ArialMT-43b"/>
     <use x="131.349609375" xlink:href="#ArialMT-43e"/>
     <use x="184.71484375" xlink:href="#ArialMT-442"/>
     <use x="230.515625" xlink:href="#ArialMT-43d"/>
     <use x="285.740234375" xlink:href="#ArialMT-43e"/>
     <use x="341.35546875" xlink:href="#ArialMT-441"/>
     <use x="391.35546875" xlink:href="#ArialMT-442"/>
     <use x="437.15625" xlink:href="#ArialMT-44c"/>
     <use x="489.255859375" xlink:href="#ArialMT-20"/>
     <use x="517.0390625" xlink:href="#ArialMT-440"/>
     <use x="572.654296875" xlink:href="#ArialMT-430"/>
     <use x="628.26953125" xlink:href="#ArialMT-441"/>
     <use x="678.26953125" xlink:href="#ArialMT-43f"/>
     <use x="732.419921875" xlink:href="#ArialMT-440"/>
     <use x="788.03515625" xlink:href="#ArialMT-435"/>
     <use x="841.400390625" xlink:href="#ArialMT-434"/>
     <use x="899.75" xlink:href="#ArialMT-435"/>
     <use x="951.990234375" xlink:href="#ArialMT-43b"/>
     <use x="1010.33984375" xlink:href="#ArialMT-435"/>
     <use x="1065.955078125" xlink:href="#ArialMT-43d"/>
     <use x="1121.1796875" xlink:href="#ArialMT-438"/>
     <use x="1177.0390625" xlink:href="#ArialMT-44f"/>
     <use x="1231.189453125" xlink:href="#ArialMT-20"/>
     <use x="1258.97265625" xlink:href="#ArialMT-43e"/>
     <use x="1312.337890625" xlink:href="#ArialMT-442"/>
     <use x="1358.138671875" xlink:href="#ArialMT-43a"/>
     <use x="1404.138671875" xlink:href="#ArialMT-430"/>
     <use x="1458.62890625" xlink:href="#ArialMT-437"/>
     <use x="1503.353515625" xlink:href="#ArialMT-43e"/>
     <use x="1558.96875" xlink:href="#ArialMT-432"/>
    </g>
   </g>
   <g id="legend_1">
    <g id="patch_17">
     <path d="
M112.901 72.4838
L382.8 72.4838
L382.8 34.8
L112.901 34.8
L112.901 72.4838
z
" style="fill:#ffffff;stroke:#000000;"/>
    </g>
    <g id="line2d_48">
     <path d="
M121.301 43.9894
L138.101 43.9894" style="fill:none;stroke:#ffa500;stroke-linecap:square;stroke-width:2;"/>
    </g>
    <g id="line2d_49"/>
    <g id="text_21">
     <!-- $f(t)$ -->
     <g transform="translate(151.30125 48.189375)scale(0.12 -0.12)">
      <use transform="translate(0.0 0.203125)" xlink:href="#STIXGeneral-Italic-66"/>
      <use transform="translate(27.79998779296875 0.203125)" xlink:href="#STIXGeneral-Regular-28"/>
      <use transform="translate(61.0999755859375 0.203125)" xlink:href="#STIXGeneral-Italic-74"/>
      <use transform="translate(88.89996337890625 0.203125)" xlink:href="#STIXGeneral-Regular-29"/>
     </g>
    </g>
    <g id="patch_18">
     <path d="
M117.701 65.2988
L141.701 65.2988
L141.701 56.8988
L117.701 56.8988
z
" style="fill:#87cefa;stroke:#000000;"/>
    </g>
    <g id="text_22">
     <!-- эмпирическая плотность распределения -->
     <defs>
      <path d="
M3.375 51.8594
L12.1562 51.8594
L12.1562 42.0469
Q12.1562 35.6875 12.9062 32.8281
Q13.6719 29.9844 16.5469 27.8594
Q19.4375 25.7344 23.7812 25.7344
Q28.7656 25.7344 36.6719 28.375
L36.6719 51.8594
L45.4531 51.8594
L45.4531 0
L36.6719 0
L36.6719 20.9062
Q28.5625 18.3594 21.5312 18.3594
Q15.625 18.3594 11.1094 21.3594
Q6.59375 24.3594 4.98438 28.7031
Q3.375 33.0625 3.375 38.2812
z
" id="ArialMT-447"/>
      <path d="
M19.9688 30.1719
L19.9688 22.9531
L38.2812 22.9531
Q37.4531 14.5 33.9062 10.2812
Q30.375 6.0625 24.0781 6.0625
Q12.9375 6.0625 10.9375 18.9531
L2.34375 17.8281
Q3.71875 9.28125 9.45312 4.04688
Q15.1875 -1.17188 24.4688 -1.17188
Q35.5 -1.8125 41.5469 5.82812
Q47.6094 13.4844 47.3125 25.9219
Q47.3125 38.5781 41.0156 45.7969
Q34.7188 53.0312 23.8281 53.0312
Q15.1406 53.0312 9.76562 48.4062
Q4.39062 43.7969 3.21875 36.5312
L11.7656 35.1562
Q13.9219 45.75 24.125 45.75
Q29.9844 45.75 33.7188 41.4219
Q37.4531 37.1094 38.2812 30.1719
z
" id="ArialMT-44d"/>
      <path d="
M6.84375 51.8594
L20.5156 51.8594
L34.125 10.3594
L49.2656 51.8594
L61.9219 51.8594
L61.9219 0
L53.125 0
L53.125 41.75
L37.7969 0
L29.9375 0
L15.4375 43.75
L15.4375 0
L6.84375 0
z
" id="ArialMT-43c"/>
     </defs>
     <g transform="translate(151.30125 65.29875)scale(0.12 -0.12)">
      <use xlink:href="#ArialMT-44d"/>
      <use x="51.025390625" xlink:href="#ArialMT-43c"/>
      <use x="119.775390625" xlink:href="#ArialMT-43f"/>
      <use x="173.92578125" xlink:href="#ArialMT-438"/>
      <use x="229.78515625" xlink:href="#ArialMT-440"/>
      <use x="285.400390625" xlink:href="#ArialMT-438"/>
      <use x="341.259765625" xlink:href="#ArialMT-447"/>
      <use x="393.359375" xlink:href="#ArialMT-435"/>
      <use x="448.974609375" xlink:href="#ArialMT-441"/>
      <use x="498.974609375" xlink:href="#ArialMT-43a"/>
      <use x="544.974609375" xlink:href="#ArialMT-430"/>
      <use x="600.58984375" xlink:href="#ArialMT-44f"/>
      <use x="654.740234375" xlink:href="#ArialMT-20"/>
      <use x="682.5234375" xlink:href="#ArialMT-43f"/>
      <use x="736.673828125" xlink:href="#ArialMT-43b"/>
      <use x="796.1484375" xlink:href="#ArialMT-43e"/>
      <use x="849.513671875" xlink:href="#ArialMT-442"/>
      <use x="895.314453125" xlink:href="#ArialMT-43d"/>
      <use x="950.5390625" xlink:href="#ArialMT-43e"/>
      <use x="1006.154296875" xlink:href="#ArialMT-441"/>
      <use x="1056.154296875" xlink:href="#ArialMT-442"/>
      <use x="1101.955078125" xlink:href="#ArialMT-44c"/>
      <use x="1154.0546875" xlink:href="#ArialMT-20"/>
      <use x="1181.837890625" xlink:href="#ArialMT-440"/>
      <use x="1237.453125" xlink:href="#ArialMT-430"/>
      <use x="1293.068359375" xlink:href="#ArialMT-441"/>
      <use x="1343.068359375" xlink:href="#ArialMT-43f"/>
      <use x="1397.21875" xlink:href="#ArialMT-440"/>
      <use x="1452.833984375" xlink:href="#ArialMT-435"/>
      <use x="1506.19921875" xlink:href="#ArialMT-434"/>
      <use x="1564.548828125" xlink:href="#ArialMT-435"/>
      <use x="1616.7890625" xlink:href="#ArialMT-43b"/>
      <use x="1675.138671875" xlink:href="#ArialMT-435"/>
      <use x="1730.75390625" xlink:href="#ArialMT-43d"/>
      <use x="1785.978515625" xlink:href="#ArialMT-438"/>
      <use x="1841.837890625" xlink:href="#ArialMT-44f"/>
     </g>
    </g>
   </g>
  </g>
 </g>
 <defs>
  <clipPath id="p124b8dd147">
   <rect height="223.2" width="334.8" x="54.0" y="28.8"/>
  </clipPath>
 </defs>
</svg>
