<?xml version="1.0" encoding="utf-8" standalone="no"?>
<!DOCTYPE svg PUBLIC "-//W3C//DTD SVG 1.1//EN"
  "http://www.w3.org/Graphics/SVG/1.1/DTD/svg11.dtd">
<!-- Created with matplotlib (http://matplotlib.org/) -->
<svg height="288pt" version="1.1" viewBox="0 0 432 288" width="432pt" xmlns="http://www.w3.org/2000/svg" xmlns:xlink="http://www.w3.org/1999/xlink">
 <defs>
  <style type="text/css">
*{stroke-linecap:butt;stroke-linejoin:round;}
  </style>
 </defs>
 <g id="figure_1">
  <g id="patch_1">
   <path d="
M0 288
L432 288
L432 0
L0 0
z
" style="fill:#ffffff;"/>
  </g>
  <g id="axes_1">
   <g id="patch_2">
    <path d="
M54 252
L388.8 252
L388.8 28.8
L54 28.8
z
" style="fill:#ffffff;"/>
   </g>
   <g id="patch_3">
    <path clip-path="url(#p124b8dd147)" d="
M54.177 252
L98.6166 252
L98.6166 133.704
L54.177 133.704
z
" style="fill:#87cefa;stroke:#000000;"/>
   </g>
   <g id="patch_4">
    <path clip-path="url(#p124b8dd147)" d="
M98.6166 252
L143.056 252
L143.056 82.368
L98.6166 82.368
z
" style="fill:#87cefa;stroke:#000000;"/>
   </g>
   <g id="patch_5">
    <path clip-path="url(#p124b8dd147)" d="
M143.056 252
L187.496 252
L187.496 60.048
L143.056 60.048
z
" style="fill:#87cefa;stroke:#000000;"/>
   </g>
   <g id="patch_6">
    <path clip-path="url(#p124b8dd147)" d="
M187.496 252
L231.936 252
L231.936 46.656
L187.496 46.656
z
" style="fill:#87cefa;stroke:#000000;"/>
   </g>
   <g id="patch_7">
    <path clip-path="url(#p124b8dd147)" d="
M231.936 252
L276.375 252
L276.375 42.192
L231.936 42.192
z
" style="fill:#87cefa;stroke:#000000;"/>
   </g>
   <g id="patch_8">
    <path clip-path="url(#p124b8dd147)" d="
M276.375 252
L320.815 252
L320.815 33.264
L276.375 33.264
z
" style="fill:#87cefa;stroke:#000000;"/>
   </g>
   <g id="patch_9">
    <path clip-path="url(#p124b8dd147)" d="
M320.815 252
L365.255 252
L365.255 31.032
L320.815 31.032
z
" style="fill:#87cefa;stroke:#000000;"/>
   </g>
   <g id="patch_10">
    <path clip-path="url(#p124b8dd147)" d="
M365.255 252
L409.694 252
L409.694 31.032
L365.255 31.032
z
" style="fill:#87cefa;stroke:#000000;"/>
   </g>
   <g id="patch_11">
    <path clip-path="url(#p124b8dd147)" d="
M409.694 252
L454.134 252
L454.134 31.032
L409.694 31.032
z
" style="fill:#87cefa;stroke:#000000;"/>
   </g>
   <g id="patch_12">
    <path clip-path="url(#p124b8dd147)" d="
M454.134 252
L498.574 252
L498.574 28.8
L454.134 28.8
z
" style="fill:#87cefa;stroke:#000000;"/>
   </g>
   <g id="line2d_1">
    <path clip-path="url(#p124b8dd147)" d="
M54 252
L57.3818 241.007
L60.7636 230.556
L64.1455 220.619
L67.5273 211.172
L70.9091 202.19
L74.2909 193.65
L77.6727 185.531
L81.0545 177.812
L84.4364 170.473
L87.8182 163.496
L91.2 156.862
L94.5818 150.555
L97.9636 144.558
L101.345 138.857
L104.727 133.437
L108.109 128.283
L111.491 123.383
L114.873 118.725
L118.255 114.296
L121.636 110.085
L125.018 106.082
L128.4 102.276
L131.782 98.6571
L135.164 95.2166
L138.545 91.9455
L141.927 88.8356
L145.309 85.8787
L148.691 83.0676
L152.073 80.3948
L155.455 77.8538
L158.836 75.4378
L162.218 73.1409
L165.6 70.957
L168.982 68.8808
L172.364 66.9068
L175.745 65.03
L179.127 63.2456
L182.509 61.5491
L185.891 59.9362
L189.273 58.4027
L192.655 56.9448
L196.036 55.5586
L199.418 54.2407
L202.8 52.9877
L206.182 51.7965
L209.564 50.6639
L212.945 49.5871
L216.327 48.5633
L219.709 47.5899
L223.091 46.6645
L226.473 45.7847
L229.855 44.9482
L233.236 44.1528
L236.618 43.3967
L240 42.6778
L243.382 41.9943
L246.764 41.3445
L250.145 40.7266
L253.527 40.1393
L256.909 39.5808
L260.291 39.0498
L263.673 38.545
L267.055 38.0651
L270.436 37.6087
L273.818 37.1749
L277.2 36.7624
L280.582 36.3703
L283.964 35.9974
L287.345 35.643
L290.727 35.3059
L294.109 34.9855
L297.491 34.6809
L300.873 34.3912
L304.255 34.1159
L307.636 33.854
L311.018 33.6051
L314.4 33.3685
L317.782 33.1435
L321.164 32.9296
L324.545 32.7262
L327.927 32.5328
L331.309 32.349
L334.691 32.1742
L338.073 32.008
L341.455 31.85
L344.836 31.6998
L348.218 31.557
L351.6 31.4212
L354.982 31.2921
L358.364 31.1693
L361.745 31.0527
L365.127 30.9417
L368.509 30.8362
L371.891 30.7359
L375.273 30.6406
L378.655 30.5499
L382.036 30.4638
L385.418 30.3818
L388.8 30.3039" style="fill:none;stroke:#ff0000;stroke-linecap:square;stroke-width:2;"/>
   </g>
   <g id="matplotlib.axis_1">
    <g id="xtick_1">
     <g id="line2d_2">
      <path clip-path="url(#p124b8dd147)" d="
M54 252
L54 28.8" style="fill:none;stroke:#000000;stroke-dasharray:1.000000,3.000000;stroke-dashoffset:0.0;stroke-width:0.5;"/>
     </g>
     <g id="line2d_3">
      <defs>
       <path d="
M0 0
L0 -4" id="mc7db9fdffb" style="stroke:#000000;stroke-width:0.5;"/>
      </defs>
      <g>
       <use style="stroke:#000000;stroke-width:0.5;" x="54.0" xlink:href="#mc7db9fdffb" y="252.0"/>
      </g>
     </g>
     <g id="line2d_4">
      <defs>
       <path d="
M0 0
L0 4" id="m5a7d422ac3" style="stroke:#000000;stroke-width:0.5;"/>
      </defs>
      <g>
       <use style="stroke:#000000;stroke-width:0.5;" x="54.0" xlink:href="#m5a7d422ac3" y="28.8"/>
      </g>
     </g>
     <g id="text_1">
      <!-- 0 -->
      <defs>
       <path d="
M4.15625 35.2969
Q4.15625 48 6.76562 55.7344
Q9.375 63.4844 14.5156 67.6719
Q19.6719 71.875 27.4844 71.875
Q33.25 71.875 37.5938 69.5469
Q41.9375 67.2344 44.7656 62.8594
Q47.6094 58.5 49.2188 52.2188
Q50.8281 45.9531 50.8281 35.2969
Q50.8281 22.7031 48.2344 14.9688
Q45.6562 7.23438 40.5 3
Q35.3594 -1.21875 27.4844 -1.21875
Q17.1406 -1.21875 11.2344 6.20312
Q4.15625 15.1406 4.15625 35.2969
M13.1875 35.2969
Q13.1875 17.6719 17.3125 11.8281
Q21.4375 6 27.4844 6
Q33.5469 6 37.6719 11.8594
Q41.7969 17.7188 41.7969 35.2969
Q41.7969 52.9844 37.6719 58.7812
Q33.5469 64.5938 27.3906 64.5938
Q21.3438 64.5938 17.7188 59.4688
Q13.1875 52.9375 13.1875 35.2969" id="ArialMT-30"/>
      </defs>
      <g transform="translate(51.66640625 263.1578125)scale(0.1 -0.1)">
       <use xlink:href="#ArialMT-30"/>
      </g>
     </g>
    </g>
    <g id="xtick_2">
     <g id="line2d_5">
      <path clip-path="url(#p124b8dd147)" d="
M124.786 252
L124.786 28.8" style="fill:none;stroke:#000000;stroke-dasharray:1.000000,3.000000;stroke-dashoffset:0.0;stroke-width:0.5;"/>
     </g>
     <g id="line2d_6">
      <g>
       <use style="stroke:#000000;stroke-width:0.5;" x="124.786356501" xlink:href="#mc7db9fdffb" y="252.0"/>
      </g>
     </g>
     <g id="line2d_7">
      <g>
       <use style="stroke:#000000;stroke-width:0.5;" x="124.786356501" xlink:href="#m5a7d422ac3" y="28.8"/>
      </g>
     </g>
     <g id="text_2">
      <!-- 2000 -->
      <defs>
       <path d="
M50.3438 8.45312
L50.3438 0
L3.03125 0
Q2.9375 3.17188 4.04688 6.10938
Q5.85938 10.9375 9.82812 15.625
Q13.8125 20.3125 21.3438 26.4688
Q33.0156 36.0312 37.1094 41.625
Q41.2188 47.2188 41.2188 52.2031
Q41.2188 57.4219 37.4688 61
Q33.7344 64.5938 27.7344 64.5938
Q21.3906 64.5938 17.5781 60.7812
Q13.7656 56.9844 13.7188 50.25
L4.6875 51.1719
Q5.60938 61.2812 11.6562 66.5781
Q17.7188 71.875 27.9375 71.875
Q38.2344 71.875 44.2344 66.1562
Q50.25 60.4531 50.25 52
Q50.25 47.7031 48.4844 43.5469
Q46.7344 39.4062 42.6562 34.8125
Q38.5781 30.2188 29.1094 22.2188
Q21.1875 15.5781 18.9375 13.2031
Q16.7031 10.8438 15.2344 8.45312
z
" id="ArialMT-32"/>
      </defs>
      <g transform="translate(114.050419001 263.1578125)scale(0.1 -0.1)">
       <use xlink:href="#ArialMT-32"/>
       <use x="55.615234375" xlink:href="#ArialMT-30"/>
       <use x="111.23046875" xlink:href="#ArialMT-30"/>
       <use x="166.845703125" xlink:href="#ArialMT-30"/>
      </g>
     </g>
    </g>
    <g id="xtick_3">
     <g id="line2d_8">
      <path clip-path="url(#p124b8dd147)" d="
M195.573 252
L195.573 28.8" style="fill:none;stroke:#000000;stroke-dasharray:1.000000,3.000000;stroke-dashoffset:0.0;stroke-width:0.5;"/>
     </g>
     <g id="line2d_9">
      <g>
       <use style="stroke:#000000;stroke-width:0.5;" x="195.572713001" xlink:href="#mc7db9fdffb" y="252.0"/>
      </g>
     </g>
     <g id="line2d_10">
      <g>
       <use style="stroke:#000000;stroke-width:0.5;" x="195.572713001" xlink:href="#m5a7d422ac3" y="28.8"/>
      </g>
     </g>
     <g id="text_3">
      <!-- 4000 -->
      <defs>
       <path d="
M32.3281 0
L32.3281 17.1406
L1.26562 17.1406
L1.26562 25.2031
L33.9375 71.5781
L41.1094 71.5781
L41.1094 25.2031
L50.7812 25.2031
L50.7812 17.1406
L41.1094 17.1406
L41.1094 0
z

M32.3281 25.2031
L32.3281 57.4688
L9.90625 25.2031
z
" id="ArialMT-34"/>
      </defs>
      <g transform="translate(184.753181751 263.1578125)scale(0.1 -0.1)">
       <use xlink:href="#ArialMT-34"/>
       <use x="55.615234375" xlink:href="#ArialMT-30"/>
       <use x="111.23046875" xlink:href="#ArialMT-30"/>
       <use x="166.845703125" xlink:href="#ArialMT-30"/>
      </g>
     </g>
    </g>
    <g id="xtick_4">
     <g id="line2d_11">
      <path clip-path="url(#p124b8dd147)" d="
M266.359 252
L266.359 28.8" style="fill:none;stroke:#000000;stroke-dasharray:1.000000,3.000000;stroke-dashoffset:0.0;stroke-width:0.5;"/>
     </g>
     <g id="line2d_12">
      <g>
       <use style="stroke:#000000;stroke-width:0.5;" x="266.359069502" xlink:href="#mc7db9fdffb" y="252.0"/>
      </g>
     </g>
     <g id="line2d_13">
      <g>
       <use style="stroke:#000000;stroke-width:0.5;" x="266.359069502" xlink:href="#m5a7d422ac3" y="28.8"/>
      </g>
     </g>
     <g id="text_4">
      <!-- 6000 -->
      <defs>
       <path d="
M49.75 54.0469
L41.0156 53.375
Q39.8438 58.5469 37.7031 60.8906
Q34.125 64.6562 28.9062 64.6562
Q24.7031 64.6562 21.5312 62.3125
Q17.3906 59.2812 14.9844 53.4688
Q12.5938 47.6562 12.5 36.9219
Q15.6719 41.75 20.2656 44.0938
Q24.8594 46.4375 29.8906 46.4375
Q38.6719 46.4375 44.8438 39.9688
Q51.0312 33.5 51.0312 23.25
Q51.0312 16.5 48.125 10.7188
Q45.2188 4.9375 40.1406 1.85938
Q35.0625 -1.21875 28.6094 -1.21875
Q17.625 -1.21875 10.6875 6.85938
Q3.76562 14.9375 3.76562 33.5
Q3.76562 54.25 11.4219 63.6719
Q18.1094 71.875 29.4375 71.875
Q37.8906 71.875 43.2812 67.1406
Q48.6875 62.4062 49.75 54.0469
M13.875 23.1875
Q13.875 18.6562 15.7969 14.5
Q17.7188 10.3594 21.1875 8.17188
Q24.6562 6 28.4688 6
Q34.0312 6 38.0312 10.4844
Q42.0469 14.9844 42.0469 22.7031
Q42.0469 30.125 38.0781 34.3906
Q34.125 38.6719 28.125 38.6719
Q22.1719 38.6719 18.0156 34.3906
Q13.875 30.125 13.875 23.1875" id="ArialMT-36"/>
      </defs>
      <g transform="translate(255.664538252 263.1578125)scale(0.1 -0.1)">
       <use xlink:href="#ArialMT-36"/>
       <use x="55.615234375" xlink:href="#ArialMT-30"/>
       <use x="111.23046875" xlink:href="#ArialMT-30"/>
       <use x="166.845703125" xlink:href="#ArialMT-30"/>
      </g>
     </g>
    </g>
    <g id="xtick_5">
     <g id="line2d_14">
      <path clip-path="url(#p124b8dd147)" d="
M337.145 252
L337.145 28.8" style="fill:none;stroke:#000000;stroke-dasharray:1.000000,3.000000;stroke-dashoffset:0.0;stroke-width:0.5;"/>
     </g>
     <g id="line2d_15">
      <g>
       <use style="stroke:#000000;stroke-width:0.5;" x="337.145426003" xlink:href="#mc7db9fdffb" y="252.0"/>
      </g>
     </g>
     <g id="line2d_16">
      <g>
       <use style="stroke:#000000;stroke-width:0.5;" x="337.145426003" xlink:href="#m5a7d422ac3" y="28.8"/>
      </g>
     </g>
     <g id="text_5">
      <!-- 8000 -->
      <defs>
       <path d="
M17.6719 38.8125
Q12.2031 40.8281 9.5625 44.5312
Q6.9375 48.25 6.9375 53.4219
Q6.9375 61.2344 12.5469 66.5469
Q18.1719 71.875 27.4844 71.875
Q36.8594 71.875 42.5781 66.4219
Q48.2969 60.9844 48.2969 53.1719
Q48.2969 48.1875 45.6719 44.5
Q43.0625 40.8281 37.75 38.8125
Q44.3438 36.6719 47.7812 31.875
Q51.2188 27.0938 51.2188 20.4531
Q51.2188 11.2812 44.7188 5.03125
Q38.2344 -1.21875 27.6406 -1.21875
Q17.0469 -1.21875 10.5469 5.04688
Q4.04688 11.3281 4.04688 20.7031
Q4.04688 27.6875 7.59375 32.3906
Q11.1406 37.1094 17.6719 38.8125
M15.9219 53.7188
Q15.9219 48.6406 19.1875 45.4062
Q22.4688 42.1875 27.6875 42.1875
Q32.7656 42.1875 36.0156 45.375
Q39.2656 48.5781 39.2656 53.2188
Q39.2656 58.0625 35.9062 61.3594
Q32.5625 64.6562 27.5938 64.6562
Q22.5625 64.6562 19.2344 61.4219
Q15.9219 58.2031 15.9219 53.7188
M13.0938 20.6562
Q13.0938 16.8906 14.875 13.375
Q16.6562 9.85938 20.1719 7.92188
Q23.6875 6 27.7344 6
Q34.0312 6 38.125 10.0469
Q42.2344 14.1094 42.2344 20.3594
Q42.2344 26.7031 38.0156 30.8594
Q33.7969 35.0156 27.4375 35.0156
Q21.2344 35.0156 17.1562 30.9062
Q13.0938 26.8125 13.0938 20.6562" id="ArialMT-38"/>
      </defs>
      <g transform="translate(326.464957253 263.1578125)scale(0.1 -0.1)">
       <use xlink:href="#ArialMT-38"/>
       <use x="55.615234375" xlink:href="#ArialMT-30"/>
       <use x="111.23046875" xlink:href="#ArialMT-30"/>
       <use x="166.845703125" xlink:href="#ArialMT-30"/>
      </g>
     </g>
    </g>
    <g id="text_6">
     <!-- $t$ -->
     <defs>
      <path d="
M29.5938 42.7969
L29.0938 39.5938
L20.7031 39.5938
L12 6.79688
Q11.7969 6 11.7969 5.40625
Q11.7969 3.79688 13.2969 3.79688
Q14.5 3.79688 16.0938 5.34375
Q17.7031 6.90625 21.4062 11.7031
L22.7031 11
Q18.0938 4 15.1406 1.45312
Q12.2031 -1.09375 8.40625 -1.09375
Q3.79688 -1.09375 3.79688 2.59375
Q3.79688 3.59375 5.40625 10
L13.2031 39.5938
L5.70312 39.5938
L5.59375 40.2031
Q5.59375 42 8.90625 42.7031
Q11.4062 43.2969 15.5 46.5469
Q19.5938 49.7969 22.2031 53.7031
Q22.7969 54.5938 23.5938 54.5938
Q24.5 54.5938 24.5 53.7969
Q24.5 53.2969 24.4062 53.0938
L21.5938 42.7969
z
" id="STIXGeneral-Italic-74"/>
     </defs>
     <g transform="translate(219.44 280.16625)scale(0.14 -0.14)">
      <use transform="translate(0.0 0.40625)" xlink:href="#STIXGeneral-Italic-74"/>
     </g>
    </g>
   </g>
   <g id="matplotlib.axis_2">
    <g id="ytick_1">
     <g id="line2d_17">
      <path clip-path="url(#p124b8dd147)" d="
M54 252
L388.8 252" style="fill:none;stroke:#000000;stroke-dasharray:1.000000,3.000000;stroke-dashoffset:0.0;stroke-width:0.5;"/>
     </g>
     <g id="line2d_18">
      <defs>
       <path d="
M0 0
L4 0" id="md7965d1ba0" style="stroke:#000000;stroke-width:0.5;"/>
      </defs>
      <g>
       <use style="stroke:#000000;stroke-width:0.5;" x="54.0" xlink:href="#md7965d1ba0" y="252.0"/>
      </g>
     </g>
     <g id="line2d_19">
      <defs>
       <path d="
M0 0
L-4 0" id="md9a1c1a7cd" style="stroke:#000000;stroke-width:0.5;"/>
      </defs>
      <g>
       <use style="stroke:#000000;stroke-width:0.5;" x="388.8" xlink:href="#md9a1c1a7cd" y="252.0"/>
      </g>
     </g>
     <g id="text_7">
      <!-- 0.0 -->
      <defs>
       <path d="
M9.07812 0
L9.07812 10.0156
L19.0938 10.0156
L19.0938 0
z
" id="ArialMT-2e"/>
      </defs>
      <g transform="translate(36.99375 254.58515625)scale(0.1 -0.1)">
       <use xlink:href="#ArialMT-30"/>
       <use x="55.615234375" xlink:href="#ArialMT-2e"/>
       <use x="83.3984375" xlink:href="#ArialMT-30"/>
      </g>
     </g>
    </g>
    <g id="ytick_2">
     <g id="line2d_20">
      <path clip-path="url(#p124b8dd147)" d="
M54 207.36
L388.8 207.36" style="fill:none;stroke:#000000;stroke-dasharray:1.000000,3.000000;stroke-dashoffset:0.0;stroke-width:0.5;"/>
     </g>
     <g id="line2d_21">
      <g>
       <use style="stroke:#000000;stroke-width:0.5;" x="54.0" xlink:href="#md7965d1ba0" y="207.36"/>
      </g>
     </g>
     <g id="line2d_22">
      <g>
       <use style="stroke:#000000;stroke-width:0.5;" x="388.8" xlink:href="#md9a1c1a7cd" y="207.36"/>
      </g>
     </g>
     <g id="text_8">
      <!-- 0.2 -->
      <g transform="translate(37.0421875 209.94515625)scale(0.1 -0.1)">
       <use xlink:href="#ArialMT-30"/>
       <use x="55.615234375" xlink:href="#ArialMT-2e"/>
       <use x="83.3984375" xlink:href="#ArialMT-32"/>
      </g>
     </g>
    </g>
    <g id="ytick_3">
     <g id="line2d_23">
      <path clip-path="url(#p124b8dd147)" d="
M54 162.72
L388.8 162.72" style="fill:none;stroke:#000000;stroke-dasharray:1.000000,3.000000;stroke-dashoffset:0.0;stroke-width:0.5;"/>
     </g>
     <g id="line2d_24">
      <g>
       <use style="stroke:#000000;stroke-width:0.5;" x="54.0" xlink:href="#md7965d1ba0" y="162.72"/>
      </g>
     </g>
     <g id="line2d_25">
      <g>
       <use style="stroke:#000000;stroke-width:0.5;" x="388.8" xlink:href="#md9a1c1a7cd" y="162.72"/>
      </g>
     </g>
     <g id="text_9">
      <!-- 0.4 -->
      <g transform="translate(36.9984375 165.30515625)scale(0.1 -0.1)">
       <use xlink:href="#ArialMT-30"/>
       <use x="55.615234375" xlink:href="#ArialMT-2e"/>
       <use x="83.3984375" xlink:href="#ArialMT-34"/>
      </g>
     </g>
    </g>
    <g id="ytick_4">
     <g id="line2d_26">
      <path clip-path="url(#p124b8dd147)" d="
M54 118.08
L388.8 118.08" style="fill:none;stroke:#000000;stroke-dasharray:1.000000,3.000000;stroke-dashoffset:0.0;stroke-width:0.5;"/>
     </g>
     <g id="line2d_27">
      <g>
       <use style="stroke:#000000;stroke-width:0.5;" x="54.0" xlink:href="#md7965d1ba0" y="118.08"/>
      </g>
     </g>
     <g id="line2d_28">
      <g>
       <use style="stroke:#000000;stroke-width:0.5;" x="388.8" xlink:href="#md9a1c1a7cd" y="118.08"/>
      </g>
     </g>
     <g id="text_10">
      <!-- 0.6 -->
      <g transform="translate(36.9734375 120.66515625)scale(0.1 -0.1)">
       <use xlink:href="#ArialMT-30"/>
       <use x="55.615234375" xlink:href="#ArialMT-2e"/>
       <use x="83.3984375" xlink:href="#ArialMT-36"/>
      </g>
     </g>
    </g>
    <g id="ytick_5">
     <g id="line2d_29">
      <path clip-path="url(#p124b8dd147)" d="
M54 73.44
L388.8 73.44" style="fill:none;stroke:#000000;stroke-dasharray:1.000000,3.000000;stroke-dashoffset:0.0;stroke-width:0.5;"/>
     </g>
     <g id="line2d_30">
      <g>
       <use style="stroke:#000000;stroke-width:0.5;" x="54.0" xlink:href="#md7965d1ba0" y="73.44"/>
      </g>
     </g>
     <g id="line2d_31">
      <g>
       <use style="stroke:#000000;stroke-width:0.5;" x="388.8" xlink:href="#md9a1c1a7cd" y="73.44"/>
      </g>
     </g>
     <g id="text_11">
      <!-- 0.8 -->
      <g transform="translate(36.9546875 76.02515625)scale(0.1 -0.1)">
       <use xlink:href="#ArialMT-30"/>
       <use x="55.615234375" xlink:href="#ArialMT-2e"/>
       <use x="83.3984375" xlink:href="#ArialMT-38"/>
      </g>
     </g>
    </g>
    <g id="ytick_6">
     <g id="line2d_32">
      <path clip-path="url(#p124b8dd147)" d="
M54 28.8
L388.8 28.8" style="fill:none;stroke:#000000;stroke-dasharray:1.000000,3.000000;stroke-dashoffset:0.0;stroke-width:0.5;"/>
     </g>
     <g id="line2d_33">
      <g>
       <use style="stroke:#000000;stroke-width:0.5;" x="54.0" xlink:href="#md7965d1ba0" y="28.8"/>
      </g>
     </g>
     <g id="line2d_34">
      <g>
       <use style="stroke:#000000;stroke-width:0.5;" x="388.8" xlink:href="#md9a1c1a7cd" y="28.8"/>
      </g>
     </g>
     <g id="text_12">
      <!-- 1.0 -->
      <defs>
       <path d="
M37.25 0
L28.4688 0
L28.4688 56
Q25.2969 52.9844 20.1406 49.9531
Q14.9844 46.9219 10.8906 45.4062
L10.8906 53.9062
Q18.2656 57.375 23.7812 62.2969
Q29.2969 67.2344 31.5938 71.875
L37.25 71.875
z
" id="ArialMT-31"/>
      </defs>
      <g transform="translate(37.6671875 31.38515625)scale(0.1 -0.1)">
       <use xlink:href="#ArialMT-31"/>
       <use x="55.615234375" xlink:href="#ArialMT-2e"/>
       <use x="83.3984375" xlink:href="#ArialMT-30"/>
      </g>
     </g>
    </g>
    <g id="text_13">
     <!-- $Q(t)$ -->
     <defs>
      <path d="
M2.90625 66
L4.09375 67.5938
Q15.5 60.7969 22 49.1875
Q28.5 37.5938 28.5 24.7031
Q28.5 -2.59375 3.79688 -17.7031
L2.90625 -16.0938
Q13.2031 -7.59375 16.5469 0.84375
Q19.9062 9.29688 19.9062 24.4062
Q19.9062 39.5938 16.5469 48.75
Q13.2031 57.9062 2.90625 66" id="STIXGeneral-Regular-29"/>
      <path d="
M6.90625 -16.9062
L5.90625 -15.2969
Q11.7031 -11.2031 14.25 -9.20312
Q16.7969 -7.20312 23.5938 -1.20312
Q15.0938 0.5 10.5469 6.64062
Q6 12.7969 6 22.5
Q6 31.7969 10.5938 41
Q15.2031 50.2031 23.2969 57.2031
Q34.4062 66.5938 47.4062 66.5938
Q57.5 66.5938 63.7031 59.8906
Q69.9062 53.2031 69.9062 42.9062
Q69.9062 31.2031 62.7969 19.9531
Q55.7031 8.70312 44.2969 2.70312
Q37.5 -1 27.9062 -1.59375
L22.5 -7.29688
L25 -7.29688
Q28.5 -7.29688 37.2969 -9.29688
Q45.9062 -11.4062 48.4062 -11.4062
Q53.7969 -11.4062 57.3906 -9.75
Q61 -8.09375 65.2031 -3.70312
L66.7969 -4.79688
Q64.4062 -8.20312 61.5938 -10.7031
Q53.2969 -18.2031 42.5 -18.2031
Q35.9062 -18.2031 27.7031 -15.5938
Q22.2031 -13.7969 18.4062 -13.7969
Q12.5 -13.7969 6.90625 -16.9062
M59.4062 48
Q59.4062 55.0938 55.9531 59.1875
Q52.5 63.2969 46.5 63.2969
Q35.5 63.2969 27.0938 50.7969
Q22.5938 44.0938 19.5469 34.8438
Q16.5 25.5938 16.5 18.2969
Q16.5 10.7969 19.8906 6.25
Q23.2969 1.70312 28.9062 1.70312
Q40.2969 1.70312 48.7031 14.0938
Q53.2969 21.0938 56.3438 30.6875
Q59.4062 40.2969 59.4062 48" id="STIXGeneral-Italic-51"/>
      <path d="
M30.4062 -16.0938
L29.2031 -17.7031
Q17.5938 -11.0938 11.1875 0.5
Q4.79688 12.0938 4.79688 25.2031
Q4.79688 52.9062 29.5 67.5938
L30.4062 66
Q20.2031 57.2969 16.7969 48.8438
Q13.4062 40.4062 13.4062 25.5
Q13.4062 10.7031 16.9062 1.5
Q20.4062 -7.70312 30.4062 -16.0938" id="STIXGeneral-Regular-28"/>
     </defs>
     <g transform="translate(29.1721875 152.09)rotate(-90.0)scale(0.14 -0.14)">
      <use transform="translate(0.0 0.40625)" xlink:href="#STIXGeneral-Italic-51"/>
      <use transform="translate(72.19998168945312 0.40625)" xlink:href="#STIXGeneral-Regular-28"/>
      <use transform="translate(105.49996948242188 0.40625)" xlink:href="#STIXGeneral-Italic-74"/>
      <use transform="translate(133.29995727539062 0.40625)" xlink:href="#STIXGeneral-Regular-29"/>
     </g>
    </g>
   </g>
   <g id="patch_13">
    <path d="
M54 252
L388.8 252" style="fill:none;stroke:#000000;"/>
   </g>
   <g id="patch_14">
    <path d="
M54 252
L54 28.8" style="fill:none;stroke:#000000;"/>
   </g>
   <g id="patch_15">
    <path d="
M388.8 252
L388.8 28.8" style="fill:none;stroke:#000000;"/>
   </g>
   <g id="patch_16">
    <path d="
M54 28.8
L388.8 28.8" style="fill:none;stroke:#000000;"/>
   </g>
   <g id="text_14">
    <!-- Вероятность отказа -->
    <defs>
     <path id="ArialMT-20"/>
     <path d="
M6.54688 51.8594
L15.3281 51.8594
L15.3281 29.4375
Q19.5312 29.4375 21.2188 31.0469
Q22.9062 32.6719 26.1719 40.4375
Q28.7656 46.5781 30.375 48.5312
Q31.9844 50.4844 34.0781 51.1719
Q36.1875 51.8594 40.8281 51.8594
L42.5781 51.8594
L42.5781 44.5781
L40.1406 44.625
Q36.6719 44.625 35.6875 43.6094
Q34.6719 42.5312 32.5625 37.2031
Q30.5625 32.125 28.9062 30.1719
Q27.25 28.2188 23.7812 26.6094
Q29.4375 25.0938 34.9062 16.0625
L44.5312 0
L34.8594 0
L25.4844 16.0625
Q22.6094 20.9062 20.4531 22.4375
Q18.3125 23.9688 15.3281 23.9688
L15.3281 0
L6.54688 0
z
" id="ArialMT-43a"/>
     <path d="
M7.32812 0
L7.32812 71.5781
L34.1875 71.5781
Q42.3906 71.5781 47.3438 69.4062
Q52.2969 67.2344 55.0938 62.7188
Q57.9062 58.2031 57.9062 53.2656
Q57.9062 48.6875 55.4219 44.625
Q52.9375 40.5781 47.9062 38.0938
Q54.3906 36.1875 57.875 31.5938
Q61.375 27 61.375 20.75
Q61.375 15.7188 59.25 11.3906
Q57.125 7.07812 54 4.73438
Q50.875 2.39062 46.1562 1.1875
Q41.4531 0 34.625 0
z

M16.7969 41.5
L32.2812 41.5
Q38.5781 41.5 41.3125 42.3281
Q44.9219 43.4062 46.75 45.8906
Q48.5781 48.3906 48.5781 52.1562
Q48.5781 55.7188 46.875 58.4219
Q45.1719 61.1406 41.9844 62.1406
Q38.8125 63.1406 31.1094 63.1406
L16.7969 63.1406
z

M16.7969 8.45312
L34.625 8.45312
Q39.2031 8.45312 41.0625 8.79688
Q44.3438 9.375 46.5312 10.7344
Q48.7344 12.1094 50.1406 14.7188
Q51.5625 17.3281 51.5625 20.75
Q51.5625 24.75 49.5156 27.7031
Q47.4688 30.6719 43.8281 31.8594
Q40.1875 33.0625 33.3438 33.0625
L16.7969 33.0625
z
" id="ArialMT-412"/>
     <path d="
M6.45312 51.8594
L15.2344 51.8594
L15.2344 31.5938
L26.375 31.5938
Q37.25 31.5938 43.1406 27.3594
Q49.0312 23.1406 49.0312 15.7188
Q49.0312 9.23438 44.1094 4.60938
Q39.2031 0 28.4219 0
L6.45312 0
z

M15.2344 7.23438
L24.4688 7.23438
Q32.8125 7.23438 36.375 9.28125
Q39.9375 11.3281 39.9375 15.6719
Q39.9375 19.0469 37.2969 21.6719
Q34.6719 24.3125 25.6406 24.3125
L15.2344 24.3125
z
" id="ArialMT-44c"/>
     <path d="
M47.4062 51.8594
L47.4062 0
L38.6719 0
L38.6719 20.2188
L33.5938 20.2188
Q28.9531 20.2188 26.6875 19.0156
Q24.4219 17.8281 20.0625 11.3281
L12.4062 0
L1.51562 0
L10.9844 13.9688
Q15.3281 20.3594 19.625 21.1875
Q12.1094 22.2188 8.46875 26.6094
Q4.82812 31 4.82812 36.7188
Q4.82812 43.4531 9.59375 47.6562
Q14.3594 51.8594 23.3906 51.8594
z

M38.6719 44.5781
L26.1719 44.5781
Q18.3125 44.5781 16.0312 42.1406
Q13.7656 39.7031 13.7656 36.4219
Q13.7656 31.7812 17.1094 29.6094
Q20.4531 27.4375 28.9531 27.4375
L38.6719 27.4375
z
" id="ArialMT-44f"/>
     <path d="
M40.4375 19
L49.0781 17.875
Q47.6562 8.9375 41.8125 3.875
Q35.9844 -1.17188 27.4844 -1.17188
Q16.8438 -1.17188 10.375 5.78125
Q3.90625 12.75 3.90625 25.7344
Q3.90625 34.125 6.6875 40.4219
Q9.46875 46.7344 15.1562 49.875
Q20.8438 53.0312 27.5469 53.0312
Q35.9844 53.0312 41.3594 48.75
Q46.7344 44.4844 48.25 36.625
L39.7031 35.2969
Q38.4844 40.5312 35.375 43.1562
Q32.2812 45.7969 27.875 45.7969
Q21.2344 45.7969 17.0781 41.0312
Q12.9375 36.2812 12.9375 25.9844
Q12.9375 15.5312 16.9375 10.7969
Q20.9531 6.0625 27.3906 6.0625
Q32.5625 6.0625 36.0312 9.23438
Q39.5 12.4062 40.4375 19" id="ArialMT-441"/>
     <path d="
M3.32812 25.9219
Q3.32812 40.3281 11.3281 47.2656
Q18.0156 53.0312 27.6406 53.0312
Q38.3281 53.0312 45.1094 46.0156
Q51.9062 39.0156 51.9062 26.6562
Q51.9062 16.6562 48.9062 10.9062
Q45.9062 5.17188 40.1562 2
Q34.4219 -1.17188 27.6406 -1.17188
Q16.75 -1.17188 10.0312 5.8125
Q3.32812 12.7969 3.32812 25.9219
M12.3594 25.9219
Q12.3594 15.9688 16.7031 11.0156
Q21.0469 6.0625 27.6406 6.0625
Q34.1875 6.0625 38.5312 11.0312
Q42.875 16.0156 42.875 26.2188
Q42.875 35.8438 38.5 40.7969
Q34.125 45.75 27.6406 45.75
Q21.0469 45.75 16.7031 40.8125
Q12.3594 35.8906 12.3594 25.9219" id="ArialMT-43e"/>
     <path d="
M1.85938 51.8594
L44 51.8594
L44 44.5781
L27.2969 44.5781
L27.2969 0
L18.5625 0
L18.5625 44.5781
L1.85938 44.5781
z
" id="ArialMT-442"/>
     <path d="
M40.4375 6.39062
Q35.5469 2.25 31.0312 0.53125
Q26.5156 -1.17188 21.3438 -1.17188
Q12.7969 -1.17188 8.20312 3
Q3.60938 7.17188 3.60938 13.6719
Q3.60938 17.4844 5.34375 20.625
Q7.07812 23.7812 9.89062 25.6875
Q12.7031 27.5938 16.2188 28.5625
Q18.7969 29.25 24.0312 29.8906
Q34.6719 31.1562 39.7031 32.9062
Q39.75 34.7188 39.75 35.2031
Q39.75 40.5781 37.25 42.7812
Q33.8906 45.75 27.25 45.75
Q21.0469 45.75 18.0938 43.5781
Q15.1406 41.4062 13.7188 35.8906
L5.125 37.0625
Q6.29688 42.5781 8.98438 45.9688
Q11.6719 49.3594 16.75 51.1875
Q21.8281 53.0312 28.5156 53.0312
Q35.1562 53.0312 39.2969 51.4688
Q43.4531 49.9062 45.4062 47.5312
Q47.3594 45.1719 48.1406 41.5469
Q48.5781 39.3125 48.5781 33.4531
L48.5781 21.7344
Q48.5781 9.46875 49.1406 6.21875
Q49.7031 2.98438 51.375 0
L42.1875 0
Q40.8281 2.73438 40.4375 6.39062
M39.7031 26.0312
Q34.9062 24.0781 25.3438 22.7031
Q19.9219 21.9219 17.6719 20.9375
Q15.4375 19.9688 14.2031 18.0938
Q12.9844 16.2188 12.9844 13.9219
Q12.9844 10.4062 15.6406 8.0625
Q18.3125 5.71875 23.4375 5.71875
Q28.5156 5.71875 32.4688 7.9375
Q36.4219 10.1562 38.2812 14.0156
Q39.7031 17 39.7031 22.7969
z
" id="ArialMT-430"/>
     <path d="
M18.0625 23.4375
L18.0625 30.3281
Q23.6406 30.375 25.6562 30.7656
Q27.6875 31.1562 29.4844 33.1094
Q31.2969 35.0625 31.2969 37.9844
Q31.2969 41.5469 28.9219 43.6719
Q26.5625 45.7969 22.7969 45.7969
Q15.375 45.7969 12.4062 37.0625
L4.04688 38.4219
Q7.95312 53.0312 22.9062 53.0312
Q31.2031 53.0312 35.9062 48.4844
Q40.625 43.9531 40.625 37.6406
Q40.625 31.2969 34.4688 27.5469
Q38.375 25.4375 40.3281 22.1875
Q42.2812 18.9531 42.2812 14.5
Q42.2812 7.51562 37.2031 3.17188
Q32.125 -1.17188 23 -1.17188
Q5.28125 -1.17188 2.4375 14.5938
L10.6875 16.3594
Q11.8125 11.375 15.25 8.64062
Q18.7031 5.90625 23.1406 5.90625
Q27.5938 5.90625 30.5469 8.42188
Q33.5 10.9375 33.5 14.8438
Q33.5 17.875 31.6406 20.1094
Q29.7812 22.3594 27.6875 22.9219
Q25.5938 23.4844 20.0625 23.4844
Q19.625 23.4844 18.0625 23.4375" id="ArialMT-437"/>
     <path d="
M42.0938 16.7031
L51.1719 15.5781
Q49.0312 7.625 43.2188 3.21875
Q37.4062 -1.17188 28.375 -1.17188
Q17 -1.17188 10.3281 5.82812
Q3.65625 12.8438 3.65625 25.4844
Q3.65625 38.5781 10.3906 45.7969
Q17.1406 53.0312 27.875 53.0312
Q38.2812 53.0312 44.875 45.9531
Q51.4688 38.875 51.4688 26.0312
Q51.4688 25.25 51.4219 23.6875
L12.75 23.6875
Q13.2344 15.1406 17.5781 10.5938
Q21.9219 6.0625 28.4219 6.0625
Q33.25 6.0625 36.6719 8.59375
Q40.0938 11.1406 42.0938 16.7031
M13.2344 30.9062
L42.1875 30.9062
Q41.6094 37.4531 38.875 40.7188
Q34.6719 45.7969 27.9844 45.7969
Q21.9219 45.7969 17.7969 41.75
Q13.6719 37.7031 13.2344 30.9062" id="ArialMT-435"/>
     <path d="
M6.59375 -19.875
L6.59375 51.8594
L14.5938 51.8594
L14.5938 45.125
Q17.4375 49.0781 21 51.0469
Q24.5625 53.0312 29.6406 53.0312
Q36.2812 53.0312 41.3594 49.6094
Q46.4375 46.1875 49.0156 39.9531
Q51.6094 33.7344 51.6094 26.3125
Q51.6094 18.3594 48.75 11.9844
Q45.9062 5.60938 40.4531 2.21875
Q35.0156 -1.17188 29 -1.17188
Q24.6094 -1.17188 21.1094 0.6875
Q17.625 2.54688 15.375 5.375
L15.375 -19.875
z

M14.5469 25.6406
Q14.5469 15.625 18.5938 10.8438
Q22.6562 6.0625 28.4219 6.0625
Q34.2812 6.0625 38.4531 11.0156
Q42.625 15.9688 42.625 26.375
Q42.625 36.2812 38.5469 41.2031
Q34.4688 46.1406 28.8125 46.1406
Q23.1875 46.1406 18.8594 40.8906
Q14.5469 35.6406 14.5469 25.6406" id="ArialMT-440"/>
     <path d="
M6.64062 51.8594
L15.4375 51.8594
L15.4375 30.2812
L39.7969 30.2812
L39.7969 51.8594
L48.5781 51.8594
L48.5781 0
L39.7969 0
L39.7969 23
L15.4375 23
L15.4375 0
L6.64062 0
z
" id="ArialMT-43d"/>
    </defs>
    <g transform="translate(148.0525 12.64)scale(0.16 -0.16)">
     <use xlink:href="#ArialMT-412"/>
     <use x="66.69921875" xlink:href="#ArialMT-435"/>
     <use x="122.314453125" xlink:href="#ArialMT-440"/>
     <use x="177.9296875" xlink:href="#ArialMT-43e"/>
     <use x="233.544921875" xlink:href="#ArialMT-44f"/>
     <use x="287.6953125" xlink:href="#ArialMT-442"/>
     <use x="333.49609375" xlink:href="#ArialMT-43d"/>
     <use x="388.720703125" xlink:href="#ArialMT-43e"/>
     <use x="444.3359375" xlink:href="#ArialMT-441"/>
     <use x="494.3359375" xlink:href="#ArialMT-442"/>
     <use x="540.13671875" xlink:href="#ArialMT-44c"/>
     <use x="592.236328125" xlink:href="#ArialMT-20"/>
     <use x="620.01953125" xlink:href="#ArialMT-43e"/>
     <use x="673.384765625" xlink:href="#ArialMT-442"/>
     <use x="719.185546875" xlink:href="#ArialMT-43a"/>
     <use x="765.185546875" xlink:href="#ArialMT-430"/>
     <use x="819.67578125" xlink:href="#ArialMT-437"/>
     <use x="865.525390625" xlink:href="#ArialMT-430"/>
    </g>
   </g>
   <g id="legend_1">
    <g id="patch_17">
     <path d="
M121.791 246
L382.8 246
L382.8 208.311
L121.791 208.311
L121.791 246
z
" style="fill:#ffffff;stroke:#000000;"/>
    </g>
    <g id="line2d_35">
     <path d="
M130.191 217.5
L146.991 217.5" style="fill:none;stroke:#ff0000;stroke-linecap:square;stroke-width:2;"/>
    </g>
    <g id="line2d_36"/>
    <g id="text_15">
     <!-- $Q(t)$ -->
     <g transform="translate(160.190625 221.7)scale(0.12 -0.12)">
      <use transform="translate(0.0 0.40625)" xlink:href="#STIXGeneral-Italic-51"/>
      <use transform="translate(72.19998168945312 0.40625)" xlink:href="#STIXGeneral-Regular-28"/>
      <use transform="translate(105.49996948242188 0.40625)" xlink:href="#STIXGeneral-Italic-74"/>
      <use transform="translate(133.29995727539062 0.40625)" xlink:href="#STIXGeneral-Regular-29"/>
     </g>
    </g>
    <g id="patch_18">
     <path d="
M126.591 238.674
L150.591 238.674
L150.591 230.274
L126.591 230.274
z
" style="fill:#87cefa;stroke:#000000;"/>
    </g>
    <g id="text_16">
     <!-- эмпирическая функция распределения -->
     <defs>
      <path d="
M6.64062 51.8594
L47.5625 51.8594
L47.5625 0
L38.7656 0
L38.7656 44.5781
L15.4375 44.5781
L15.4375 0
L6.64062 0
z
" id="ArialMT-43f"/>
      <path d="
M6.20312 -19.9688
L5.21875 -11.7188
Q8.10938 -12.5 10.25 -12.5
Q13.1875 -12.5 14.9375 -11.5156
Q16.7031 -10.5469 17.8281 -8.79688
Q18.6562 -7.46875 20.5156 -2.25
Q20.75 -1.51562 21.2969 -0.09375
L1.60938 51.8594
L11.0781 51.8594
L21.875 21.8281
Q23.9688 16.1094 25.6406 9.8125
Q27.1562 15.875 29.25 21.625
L40.3281 51.8594
L49.125 51.8594
L29.3906 -0.875
Q26.2188 -9.42188 24.4688 -12.6406
Q22.125 -17 19.0938 -19.0156
Q16.0625 -21.0469 11.8594 -21.0469
Q9.32812 -21.0469 6.20312 -19.9688" id="ArialMT-443"/>
      <path d="
M6.59375 51.8594
L15.375 51.8594
L15.375 12.3125
L39.75 51.8594
L49.2188 51.8594
L49.2188 0
L40.4375 0
L40.4375 39.3125
L16.0625 0
L6.59375 0
z
" id="ArialMT-438"/>
      <path d="
M10.8906 51.8594
L51.7031 51.8594
L51.7031 0
L42.9688 0
L42.9688 44.5781
L19.6719 44.5781
L19.6719 18.75
Q19.6719 9.71875 19.0781 6.82812
Q18.5 3.95312 15.8594 1.79688
Q13.2344 -0.34375 8.25 -0.34375
Q5.17188 -0.34375 1.17188 0.046875
L1.17188 7.375
L5.03125 7.375
Q7.76562 7.375 8.9375 7.9375
Q10.1094 8.5 10.5 9.71875
Q10.8906 10.9375 10.8906 17.6719
z
" id="ArialMT-43b"/>
      <path d="
M13.5312 51.8594
L49.6562 51.8594
L49.6562 7.23438
L55.2812 7.23438
L55.2812 -14.7031
L48.0469 -14.7031
L48.0469 0
L7.23438 0
L7.23438 -14.7031
L0 -14.7031
L0 7.23438
L4.64062 7.23438
Q13.9219 19.8281 13.5312 51.8594
M20.8438 44.5781
Q19.875 19.3438 13.0312 7.23438
L40.9219 7.23438
L40.9219 44.5781
z
" id="ArialMT-434"/>
      <path d="
M6.73438 51.8594
L15.5312 51.8594
L15.5312 7.23438
L39.8438 7.23438
L39.8438 51.8594
L48.6406 51.8594
L48.6406 7.23438
L54.2969 7.23438
L54.2969 -14.7031
L47.0781 -14.7031
L47.0781 0
L6.73438 0
z
" id="ArialMT-446"/>
      <path d="
M3.375 51.8594
L12.1562 51.8594
L12.1562 42.0469
Q12.1562 35.6875 12.9062 32.8281
Q13.6719 29.9844 16.5469 27.8594
Q19.4375 25.7344 23.7812 25.7344
Q28.7656 25.7344 36.6719 28.375
L36.6719 51.8594
L45.4531 51.8594
L45.4531 0
L36.6719 0
L36.6719 20.9062
Q28.5625 18.3594 21.5312 18.3594
Q15.625 18.3594 11.1094 21.3594
Q6.59375 24.3594 4.98438 28.7031
Q3.375 33.0625 3.375 38.2812
z
" id="ArialMT-447"/>
      <path d="
M36.7656 71.5781
L45.5625 71.5781
L45.5625 46.8281
Q48.2969 49.9531 51.5625 51.4844
Q54.8281 53.0312 58.5938 53.0312
Q67.8281 53.0312 73.2188 45.3281
Q78.6094 37.6406 78.6094 25.9844
Q78.6094 13.8125 72.7969 6.3125
Q67 -1.17188 58.3438 -1.17188
Q55.5156 -1.17188 52.5781 -0.28125
Q49.6562 0.59375 45.5625 4.5
L45.5625 -19.875
L36.7656 -19.875
L36.7656 4.5
Q34.125 1.65625 30.9219 0.234375
Q27.7344 -1.17188 24.0312 -1.17188
Q15.875 -1.17188 9.76562 5.98438
Q3.65625 13.1406 3.65625 26.4688
Q3.65625 37.75 9.17188 45.3906
Q14.7031 53.0312 24.0312 53.0312
Q27.9375 53.0312 31.1094 51.4844
Q34.2812 49.9531 36.7656 46.8281
z

M45.5156 25.7344
Q45.5156 14.0156 48.7344 9.98438
Q51.9531 5.95312 56.7812 5.95312
Q62.1562 5.95312 65.9375 10.9062
Q69.7344 15.875 69.7344 26.3125
Q69.7344 36.1875 66.2344 41.0156
Q62.75 45.8438 57.2812 45.8438
Q51.4219 45.8438 48.4688 40.8125
Q45.5156 35.7969 45.5156 25.7344
M12.5938 26.7031
Q12.5938 15.7188 16.2812 10.8906
Q19.9688 6.0625 25.4375 6.0625
Q31.1562 6.0625 33.9844 10.8594
Q36.8125 15.6719 36.8125 25.2969
Q36.8125 35.5469 33.8281 40.6719
Q30.8594 45.7969 24.8594 45.7969
Q19.4375 45.7969 16.0156 40.7969
Q12.5938 35.7969 12.5938 26.7031" id="ArialMT-444"/>
      <path d="
M19.9688 30.1719
L19.9688 22.9531
L38.2812 22.9531
Q37.4531 14.5 33.9062 10.2812
Q30.375 6.0625 24.0781 6.0625
Q12.9375 6.0625 10.9375 18.9531
L2.34375 17.8281
Q3.71875 9.28125 9.45312 4.04688
Q15.1875 -1.17188 24.4688 -1.17188
Q35.5 -1.8125 41.5469 5.82812
Q47.6094 13.4844 47.3125 25.9219
Q47.3125 38.5781 41.0156 45.7969
Q34.7188 53.0312 23.8281 53.0312
Q15.1406 53.0312 9.76562 48.4062
Q4.39062 43.7969 3.21875 36.5312
L11.7656 35.1562
Q13.9219 45.75 24.125 45.75
Q29.9844 45.75 33.7188 41.4219
Q37.4531 37.1094 38.2812 30.1719
z
" id="ArialMT-44d"/>
      <path d="
M6.84375 51.8594
L20.5156 51.8594
L34.125 10.3594
L49.2656 51.8594
L61.9219 51.8594
L61.9219 0
L53.125 0
L53.125 41.75
L37.7969 0
L29.9375 0
L15.4375 43.75
L15.4375 0
L6.84375 0
z
" id="ArialMT-43c"/>
     </defs>
     <g transform="translate(160.190625 238.674375)scale(0.12 -0.12)">
      <use xlink:href="#ArialMT-44d"/>
      <use x="51.025390625" xlink:href="#ArialMT-43c"/>
      <use x="119.775390625" xlink:href="#ArialMT-43f"/>
      <use x="173.92578125" xlink:href="#ArialMT-438"/>
      <use x="229.78515625" xlink:href="#ArialMT-440"/>
      <use x="285.400390625" xlink:href="#ArialMT-438"/>
      <use x="341.259765625" xlink:href="#ArialMT-447"/>
      <use x="393.359375" xlink:href="#ArialMT-435"/>
      <use x="448.974609375" xlink:href="#ArialMT-441"/>
      <use x="498.974609375" xlink:href="#ArialMT-43a"/>
      <use x="544.974609375" xlink:href="#ArialMT-430"/>
      <use x="600.58984375" xlink:href="#ArialMT-44f"/>
      <use x="654.740234375" xlink:href="#ArialMT-20"/>
      <use x="682.5234375" xlink:href="#ArialMT-444"/>
      <use x="763.673828125" xlink:href="#ArialMT-443"/>
      <use x="813.673828125" xlink:href="#ArialMT-43d"/>
      <use x="868.8984375" xlink:href="#ArialMT-43a"/>
      <use x="912.6484375" xlink:href="#ArialMT-446"/>
      <use x="969.923828125" xlink:href="#ArialMT-438"/>
      <use x="1025.783203125" xlink:href="#ArialMT-44f"/>
      <use x="1079.93359375" xlink:href="#ArialMT-20"/>
      <use x="1107.716796875" xlink:href="#ArialMT-440"/>
      <use x="1163.33203125" xlink:href="#ArialMT-430"/>
      <use x="1218.947265625" xlink:href="#ArialMT-441"/>
      <use x="1268.947265625" xlink:href="#ArialMT-43f"/>
      <use x="1323.09765625" xlink:href="#ArialMT-440"/>
      <use x="1378.712890625" xlink:href="#ArialMT-435"/>
      <use x="1432.078125" xlink:href="#ArialMT-434"/>
      <use x="1490.427734375" xlink:href="#ArialMT-435"/>
      <use x="1542.66796875" xlink:href="#ArialMT-43b"/>
      <use x="1601.017578125" xlink:href="#ArialMT-435"/>
      <use x="1656.6328125" xlink:href="#ArialMT-43d"/>
      <use x="1711.857421875" xlink:href="#ArialMT-438"/>
      <use x="1767.716796875" xlink:href="#ArialMT-44f"/>
     </g>
    </g>
   </g>
  </g>
 </g>
 <defs>
  <clipPath id="p124b8dd147">
   <rect height="223.2" width="334.8" x="54.0" y="28.8"/>
  </clipPath>
 </defs>
</svg>
